<svg width="69" height="60" viewBox="0 0 69 60" fill="none" xmlns="http://www.w3.org/2000/svg">
<g clip-path="url(#clip0_816_2317)">
<path d="M15.2984 10.9938C13.5689 12.8431 12.1538 14.8961 11.0296 17.1607C10.5972 18.0384 9.92902 18.3126 9.23721 17.96C8.55327 17.6074 8.4039 16.9022 8.83628 16.0402C10.0862 13.5562 11.6271 11.2681 13.5453 9.25425C16.1396 6.53517 19.0876 4.39595 22.9004 3.70638C23.152 3.65937 23.3878 3.45563 23.608 3.29891C24.685 2.57017 25.6912 1.70038 26.839 1.11268C29.4333 -0.211599 32.1298 -0.415334 34.842 0.854093C35.0621 0.95596 35.3294 0.99514 35.581 1.02648C36.9017 1.1832 38.246 1.25373 39.551 1.48097C49.425 3.22839 56.0129 8.85461 59.2911 18.2891C61.0678 23.406 61.5238 28.711 61.3429 34.0943C61.3194 34.7133 61.453 35.1913 61.8933 35.6693C63.7957 37.785 65.7218 39.8772 67.4985 42.1026C70.1478 45.4251 69.1887 50.299 65.5488 52.5088C62.1841 54.554 58.6072 56.1368 54.8494 57.3044C53.6544 57.6727 52.4359 57.9861 51.2095 58.2682C50.4312 58.4406 49.8416 58.041 49.6844 57.3436C49.535 56.7089 49.9124 56.129 50.6278 55.8939C50.7457 55.8547 50.8794 55.8312 50.9973 55.7999C55.6198 54.695 59.9751 52.9476 64.063 50.5341C66.7909 48.9199 67.357 45.6602 65.2815 43.2545C63.9765 41.7422 62.6479 40.2455 61.3272 38.7488C61.2014 38.6078 61.0521 38.4902 60.8713 38.31C59.9593 41.0839 57.9861 42.8549 55.6984 44.3751C55.384 44.5866 55.1009 44.9236 54.9359 45.2605C54.5192 46.1068 53.9217 46.7337 53.0413 47.0706C49.8652 48.2695 46.587 48.9199 43.183 48.7475C42.4204 48.7083 41.6657 48.4654 40.9032 48.4654C35.2901 48.4341 29.7478 47.7602 24.2605 46.6005C18.0263 45.284 12.1774 43.1918 7.58631 38.4824C6.46998 37.3305 5.77817 36.1003 5.70742 34.5096C5.66811 33.7025 5.58163 32.9032 5.51874 32.0961C5.39296 32.1274 5.33007 32.1196 5.29862 32.1509C2.33485 34.7525 1.43865 39.219 4.16657 42.5336C5.50302 44.1635 7.25613 45.2448 9.25294 45.8325C16.226 47.8934 22.7511 50.9181 28.9459 54.7107C32.9002 57.132 37.2633 57.9548 41.878 57.3906C43.1987 57.226 44.5194 57.0301 45.848 56.9048C46.5477 56.8342 47.0665 57.3044 47.153 57.9313C47.2395 58.5738 46.8621 59.1302 46.1861 59.3026C45.8873 59.3809 45.5807 59.3966 45.2741 59.4436C42.5069 59.8589 39.7318 60.2037 36.9253 59.8981C33.0967 59.4906 29.6456 58.1115 26.3988 56.0898C20.9115 52.6812 15.0311 50.111 8.82055 48.293C6.92594 47.7367 5.22001 46.8199 3.71847 45.5426C-2.69648 40.0731 0.21226 32.1823 4.92913 29.4475C5.35365 29.2046 5.45585 28.9147 5.47157 28.468C5.55019 26.1329 5.90395 23.837 6.62721 21.6116C6.8945 20.7888 7.48411 20.4362 8.19164 20.6477C8.92275 20.8593 9.22935 21.5254 8.96206 22.3717C7.64134 26.5717 7.7514 30.8423 8.32528 35.1286C8.38031 35.5518 8.63974 36.0141 8.93848 36.3197C11.9494 39.3914 15.4792 41.6011 19.6379 42.847C25.2431 44.5318 30.982 45.4016 36.7995 45.8404C37.6328 45.9031 38.4582 45.9344 39.2758 45.9814C39.3151 45.7777 39.3387 45.6993 39.3387 45.6288C39.323 39.4854 39.0164 33.3655 37.9158 27.3005C36.7209 20.7104 33.8357 14.9588 29.4097 9.96732C28.5214 8.96432 27.4286 8.11803 26.3673 7.27959C24.8108 6.04934 23.0891 5.81426 21.2731 6.69972C20.2354 7.20906 19.2213 7.74974 18.1207 8.31393C21.6662 11.4562 23.4979 13.6267 25.2667 16.6984C28.0968 21.6116 29.449 26.94 29.7163 32.5663C29.7792 33.9219 29.7478 35.2775 29.7163 36.6331C29.6927 37.5264 29.1503 38.0514 28.4034 38.0122C27.6723 37.9731 27.2557 37.4481 27.2557 36.5704C27.2557 36.21 27.2714 35.8574 27.2793 35.4969C27.405 29.0009 26.1393 22.8418 22.7039 17.2313C21.0058 14.4573 18.8989 12.0439 16.1946 9.99867C15.888 10.3434 15.6129 10.6804 15.3141 10.9938H15.2984ZM40.0541 25.6079C41.4535 31.8845 41.8544 38.2552 41.7601 44.665C41.7365 46.0911 41.878 46.2322 43.3245 46.2792C46.1782 46.3732 48.9376 45.9187 51.634 44.9784C52.4516 44.6885 52.774 44.281 52.7032 43.4112C52.3887 39.6891 52.1293 35.9671 51.8463 32.245C51.7834 31.3752 51.6969 30.5132 51.6419 29.6434C51.5869 28.7658 52.0428 28.1624 52.7818 28.1076C53.5208 28.0527 54.0318 28.5699 54.1025 29.471C54.4091 33.3969 54.7 37.3227 55.0066 41.2485C55.0145 41.3974 55.0381 41.5384 55.0852 41.9146C55.7692 41.3112 56.3902 40.8645 56.8855 40.3082C58.1512 38.9134 58.7723 37.2522 58.8745 35.3637C59.1103 30.6386 58.9059 25.9449 57.6088 21.3687C56.4295 17.1842 54.8494 13.1722 51.634 10.03C48.6388 7.09936 45.0383 5.31276 40.9975 4.32543C40.9346 4.30975 40.8638 4.32543 40.7931 4.32543C40.8953 4.23139 40.9975 4.13736 41.0918 4.04333C42.6012 5.71239 44.1342 7.35794 45.6122 9.06619C49.3306 13.3681 51.7991 18.3126 53.0963 23.837C53.3085 24.7224 52.9862 25.3807 52.2787 25.5687C51.5397 25.7646 50.9422 25.3415 50.6828 24.4168C49.4328 19.9503 47.6404 15.7424 44.8732 11.9812C41.9645 8.03967 38.2538 5.10119 33.765 3.13436C31.2886 2.053 28.0575 2.57801 26.4224 4.24707C33.8829 9.52851 38.1045 16.8551 40.062 25.6157L40.0541 25.6079Z" fill="#545151"/>
</g>
<defs>
<clipPath id="clip0_816_2317">
<rect width="69" height="60" fill="white"/>
</clipPath>
</defs>
</svg>
