<svg width="56" height="64" viewBox="0 0 56 64" fill="none" xmlns="http://www.w3.org/2000/svg">
<g clip-path="url(#clip0_146_484)">
<path d="M5.31573 56.4554V55.8246C5.31573 51.9071 5.31573 47.9896 5.31573 44.0721C5.31573 43.6737 5.28287 43.3334 4.91315 43.1093C4.79813 43.0346 4.70775 42.9018 4.62559 42.7856C4.05869 41.9639 4.07512 39.0009 4.65846 38.2041C5.12677 37.565 5.76761 37.3243 6.53991 37.3326C9.40728 37.3409 12.2747 37.3326 15.142 37.3326C15.3639 37.3326 15.5857 37.3326 15.8404 37.3326V15.9937C15.3803 15.9937 14.9202 15.9937 14.4519 15.9937C13.8521 15.9937 13.2441 16.0601 12.6608 15.9605C12.3239 15.9024 11.8803 15.6286 11.7735 15.3381C11.6502 15.0227 11.8474 14.5745 11.9378 14.1927C11.9624 14.0931 12.1021 14.0184 12.1925 13.9271C16.9249 9.51158 21.6326 5.08777 26.3568 0.672258C27.3181 -0.224124 27.6878 -0.215824 28.6491 0.688858C33.3157 5.07117 37.9906 9.45348 42.6573 13.8275C42.7641 13.9271 42.8709 14.0267 42.9695 14.1263C43.2981 14.4666 43.4378 14.8567 43.2488 15.3215C43.0599 15.7697 42.7066 15.9937 42.2301 15.9937C41.2195 15.9937 40.2171 15.9937 39.1655 15.9937V25.5967C39.3873 25.5967 39.6009 25.5967 39.8228 25.5967C42.6491 25.5967 45.4754 25.5967 48.3016 25.5967C49.9284 25.5967 50.7171 26.4017 50.7254 28.0534C50.7254 28.5763 50.7254 29.0992 50.7254 29.6138C50.7418 30.3857 50.4953 31.0247 49.9038 31.5559C49.7477 31.697 49.6819 32.0207 49.6819 32.2614C49.6737 39.0507 49.6737 45.8482 49.6737 52.6375C49.6737 53.9074 49.6737 55.1772 49.6737 56.4637C49.9448 56.5135 50.1913 56.555 50.4214 56.6131C51.6702 56.9036 52.6808 57.9743 52.7711 59.2774C52.8615 60.4808 52.8369 61.6926 52.8204 62.8961C52.804 63.585 52.3932 63.9502 51.7113 63.9834C51.547 63.9834 51.3826 63.9834 51.2183 63.9834C35.4026 63.9834 19.5869 63.9834 3.76292 63.9834C2.40728 63.9834 2.15259 63.7178 2.15259 62.34C2.15259 61.5515 2.15259 60.7547 2.15259 59.9663C2.15259 58.0905 3.11386 56.9036 4.92137 56.5467C5.03639 56.5218 5.15963 56.4886 5.31573 56.4554ZM18.0176 56.4554H23.2676C23.2676 54.7872 23.2758 53.1604 23.2512 51.5419C23.2512 51.3925 23.0211 51.2016 22.8568 51.1103C22.3885 50.853 22.1338 50.4712 22.2324 49.9401C22.3228 49.4089 22.6761 49.1101 23.2183 49.0686C23.3416 49.0603 23.4648 49.0603 23.588 49.052C26.1843 49.052 28.7805 49.052 31.385 49.052C31.5657 49.052 31.804 49.0105 31.9272 49.1018C32.223 49.3176 32.6338 49.5832 32.6831 49.882C32.7406 50.214 32.5516 50.8364 32.3052 50.936C31.6643 51.2099 31.7136 51.6581 31.7136 52.1727C31.7301 53.4011 31.7136 54.6295 31.7136 55.8578C31.7136 56.057 31.7301 56.2562 31.7383 56.472H36.939V15.9937H36.2488C32.7653 15.9937 29.2817 15.9937 25.7981 15.9937C25.6092 15.9937 25.4284 16.002 25.2394 15.9771C24.6972 15.9024 24.2946 15.4294 24.3028 14.9065C24.311 14.3753 24.7218 13.9271 25.2723 13.869C25.4531 13.8524 25.642 13.8607 25.831 13.8607C30.1362 13.8607 34.4495 13.8607 38.7547 13.8607H39.5681C35.4519 10.0013 31.4754 6.26634 27.4742 2.51482C23.4566 6.28294 19.4883 10.0096 15.3885 13.8607C17.2617 13.8607 18.9214 13.8607 20.5892 13.8607C20.7946 13.8607 21 13.8524 21.2054 13.869C21.7887 13.9271 22.1995 14.3836 22.1831 14.9563C22.1667 15.5456 21.7312 15.9771 21.0904 15.9937C20.0634 16.0103 19.0446 15.9937 18.0012 15.9937V56.4637L18.0176 56.4554ZM4.26409 61.8171H50.7089C50.7089 61.2859 50.7089 60.7962 50.7089 60.2982C50.7089 58.9122 50.446 58.6466 49.0904 58.6466C34.7207 58.6466 20.3427 58.6466 5.97301 58.6466C5.74296 58.6466 5.52113 58.63 5.29109 58.6549C4.65024 58.7213 4.28052 59.1114 4.26409 59.7671C4.24766 60.431 4.26409 61.095 4.26409 61.8171ZM47.5293 45.8565C46.4859 45.8565 45.5247 45.8648 44.5552 45.8565C43.7336 45.8482 43.3474 45.4581 43.3392 44.6282C43.331 43.3583 43.3392 42.0884 43.3392 40.8185C43.3392 39.806 43.6761 39.474 44.6702 39.4657C45.615 39.4657 46.5517 39.4657 47.5129 39.4657V36.32C47.4308 36.2951 47.3979 36.2702 47.3568 36.2702C46.5352 36.2702 45.7054 36.2619 44.8838 36.2619C43.6021 36.2619 43.331 35.988 43.331 34.685C43.331 33.7969 43.331 32.9088 43.331 32.0373H39.1573V47.9979C39.4284 47.9979 39.6502 47.9979 39.8803 47.9979C41.3427 47.9979 42.8052 47.9979 44.2758 47.9979C44.7523 47.9979 45.1796 48.1639 45.311 48.6204C45.4014 48.9358 45.3603 49.3674 45.2124 49.6662C45.081 49.9235 44.7113 50.0563 44.4237 50.2555V56.4637H47.5293V45.8648V45.8565ZM7.46832 56.4471H15.8404V52.2474C15.5775 52.2474 15.3556 52.2474 15.1338 52.2474C13.6467 52.2474 12.1678 52.2557 10.6808 52.2474C9.95775 52.2474 9.56339 51.8573 9.55517 51.1269C9.53874 49.7326 9.53874 48.3382 9.55517 46.9438C9.56339 46.2549 9.96597 45.8731 10.6479 45.8648C11.7817 45.8482 12.9155 45.8648 14.0493 45.8648C14.6409 45.8648 15.2324 45.8648 15.8239 45.8648V43.7899H7.46832V56.4637V56.4471ZM29.5528 56.4637V51.2265H25.4366V56.4637H29.5528ZM6.41667 39.4906V41.5572H15.8322V39.4906H6.41667ZM48.5563 27.7712H39.1573V29.8213H48.5563V27.7712ZM39.1573 50.1476V56.472H42.2136V50.1476H39.1573ZM15.8404 48.0394H11.6831V50.0895H15.8404V48.0394ZM47.4965 34.0957V32.029H45.4754V34.0957H47.4965ZM45.4918 41.6236V43.6903H47.4965V41.6236H45.4918Z" fill="#545151"/>
<path d="M4.0505 19.7204C5.22539 21.1065 5.36506 21.563 4.83102 22.0942C4.3052 22.6254 3.82867 22.476 2.58806 21.3804C1.92257 21.8784 1.3228 23.0321 0.361536 22.0361C-0.566867 21.065 0.566935 20.484 1.05168 19.8283C-0.03283 18.5253 -0.156069 18.102 0.386184 17.5708C0.920222 17.0479 1.33102 17.1724 2.60449 18.2763C2.84276 18.0439 3.08102 17.7949 3.34393 17.5708C3.83689 17.1392 4.42022 17.1641 4.83924 17.5957C5.2336 18.0107 5.25003 18.5917 4.83924 19.0565C4.62562 19.3055 4.33806 19.4881 4.06694 19.7204H4.0505Z" fill="#545151"/>
<path d="M8.50353 2.83021C7.92841 2.09153 6.86034 1.51054 7.74766 0.572658C8.70893 -0.439922 9.31691 0.697155 9.97419 1.20345C11.2641 0.074668 11.6831 -0.0581293 12.2171 0.47306C12.7594 1.01255 12.6362 1.42754 11.412 2.88831C11.6667 3.08751 11.9789 3.2618 12.2089 3.5108C12.6608 4.00049 12.6444 4.58978 12.2171 5.02137C11.7981 5.44466 11.2066 5.46126 10.7301 5.01307C10.4918 4.78897 10.3028 4.50678 9.90846 4.03369C9.65376 4.41548 9.52231 4.71427 9.30048 4.93007C8.78287 5.45296 8.15846 5.46126 7.7148 4.99647C7.304 4.56488 7.32865 3.94239 7.79695 3.4444C7.99414 3.2369 8.2324 3.06261 8.4871 2.83021H8.50353Z" fill="#545151"/>
<path d="M51.9002 10.2337C50.8075 8.88084 50.6843 8.48245 51.1854 7.95956C51.7195 7.40347 52.1221 7.51967 53.5927 8.78124C53.7653 8.53225 53.9214 8.24175 54.1514 8.00936C54.6526 7.51137 55.2523 7.51137 55.6878 7.95956C56.1068 8.39115 56.0986 9.02194 55.6221 9.51993C55.4084 9.74402 55.1455 9.90172 54.8908 10.1009C55.4988 10.8811 56.534 11.4206 55.6549 12.4581C55.1948 13.0059 54.743 12.8399 53.4366 11.7775C52.1878 12.8648 51.7441 13.0142 51.2101 12.4996C50.6596 11.9601 50.7993 11.487 51.9002 10.2254V10.2337Z" fill="#545151"/>
<path d="M26.4226 33.0582C26.4226 33.7471 26.4308 34.436 26.4226 35.1166C26.4061 35.847 26.02 36.2371 25.3134 36.2454C23.9496 36.262 22.5939 36.262 21.2301 36.2454C20.5235 36.2454 20.1127 35.8304 20.1045 35.1166C20.0881 33.7388 20.0881 32.3693 20.1045 30.9916C20.1045 30.2778 20.5153 29.8628 21.2219 29.8545C22.5857 29.8379 23.9413 29.8379 25.3052 29.8545C26.02 29.8545 26.4061 30.2612 26.4226 30.9833C26.439 31.6722 26.4226 32.361 26.4226 33.0416V33.0582ZM22.2406 32.0207V34.0791H24.27V32.0207H22.2406Z" fill="#545151"/>
<path d="M26.4226 23.4968C26.4226 24.1608 26.4308 24.8331 26.4226 25.4971C26.4061 26.2607 26.0364 26.6425 25.2723 26.6508C23.9331 26.6674 22.5939 26.6674 21.2547 26.6508C20.4989 26.6425 20.1127 26.2441 20.1045 25.4888C20.0881 24.1359 20.0881 22.783 20.1045 21.4302C20.1045 20.6832 20.5153 20.2682 21.2629 20.2599C22.6021 20.2433 23.9413 20.2433 25.2805 20.2599C26.02 20.2682 26.4143 20.6832 26.4226 21.4385C26.439 22.1273 26.4226 22.8162 26.4226 23.4968ZM24.2782 24.4845V22.4344H22.2406V24.4845H24.2782Z" fill="#545151"/>
<path d="M31.6808 26.6508C31.0235 26.6508 30.358 26.6591 29.7007 26.6508C28.9777 26.6342 28.5587 26.2607 28.5423 25.5552C28.5176 24.1608 28.5176 22.7664 28.5423 21.3721C28.5587 20.6666 28.986 20.2765 29.7007 20.2682C31.0399 20.2516 32.3791 20.2516 33.7183 20.2682C34.466 20.2765 34.8604 20.6749 34.8686 21.4385C34.885 22.7913 34.8932 24.1442 34.8686 25.4971C34.8604 26.269 34.4742 26.6425 33.7183 26.6591C33.0364 26.6757 32.3545 26.6591 31.6808 26.6591V26.6508ZM30.6949 24.4596H32.716V22.4178H30.6949V24.4596Z" fill="#545151"/>
<path d="M23.2511 45.8649C22.6103 45.8649 21.9695 45.8649 21.3368 45.8649C20.5152 45.8566 20.1044 45.4582 20.1044 44.6448C20.0962 43.3085 20.0962 41.9805 20.1044 40.6443C20.1044 39.8807 20.4906 39.474 21.2382 39.4657C22.6021 39.4491 23.9577 39.4491 25.3216 39.4657C26.0364 39.474 26.4143 39.8641 26.4225 40.6028C26.4389 41.9805 26.4389 43.35 26.4225 44.7278C26.4225 45.4416 26.0117 45.8317 25.2969 45.8566C24.615 45.8732 23.9331 45.8566 23.2594 45.8566L23.2511 45.8649ZM22.257 41.632V43.6986H24.2699V41.632H22.257Z" fill="#545151"/>
<path d="M31.7301 39.4741C32.412 39.4741 33.0939 39.4575 33.7676 39.4741C34.466 39.4907 34.8521 39.8558 34.8686 40.553C34.8932 41.9474 34.8932 43.3418 34.8686 44.7361C34.8604 45.4582 34.4496 45.8483 33.7348 45.8566C32.3709 45.8732 31.0153 45.8732 29.6514 45.8566C28.9777 45.8483 28.5587 45.4416 28.5423 44.7693C28.5176 43.3501 28.5176 41.9391 28.5423 40.5198C28.5587 39.8724 28.9777 39.4907 29.6186 39.4741C30.3169 39.4575 31.0235 39.4741 31.7219 39.4741H31.7301ZM32.7242 43.6987V41.6569H30.6867V43.6987H32.7242Z" fill="#545151"/>
<path d="M31.6644 36.2537C31.0071 36.2537 30.3416 36.262 29.6843 36.2537C28.9777 36.2371 28.5505 35.8553 28.5423 35.1415C28.5176 33.7471 28.5176 32.3527 28.5423 30.9584C28.5587 30.2778 28.9777 29.8794 29.6514 29.8711C31.0317 29.8545 32.412 29.8545 33.7923 29.8711C34.4413 29.8794 34.8439 30.2612 34.8604 30.9169C34.8932 32.3361 34.8932 33.7471 34.8604 35.1664C34.8439 35.8885 34.4413 36.2371 33.7019 36.2537C33.02 36.262 32.3381 36.2537 31.6644 36.2537ZM32.7324 32.0373H30.7031V34.0874H32.7324V32.0373Z" fill="#545151"/>
</g>
<defs>
<clipPath id="clip0_146_484">
<rect width="56" height="64" fill="white"/>
</clipPath>
</defs>
</svg>
