<svg width="64" height="54" viewBox="0 0 64 54" fill="none" xmlns="http://www.w3.org/2000/svg">
<g clip-path="url(#clip0_146_486)">
<path d="M36.6265 22.1973C37.0624 22.2754 37.3911 22.3179 37.7126 22.396C40.3421 23.0344 42.2356 25.2123 42.2927 27.901C42.3713 31.5899 42.3285 35.2788 42.3213 38.9677C42.3213 39.748 41.9498 40.0886 41.1638 40.0956C40.1849 40.1098 39.2131 40.0956 38.1556 40.0956C38.1413 40.3581 38.1199 40.5922 38.1199 40.8263C38.1199 42.5076 38.1199 44.1818 38.1199 45.8631C38.1199 46.4023 37.9056 46.8279 37.3482 46.9627C36.8695 47.0833 36.4551 46.9201 36.2264 46.4661C36.1335 46.2817 36.1049 46.0405 36.1049 45.8276C36.1049 40.6561 36.0978 35.4916 36.1049 30.32C36.1049 29.5893 36.4908 29.1779 37.1124 29.185C37.7198 29.185 38.1056 29.6177 38.1128 30.3413C38.1199 32.6611 38.1128 34.9808 38.1128 37.3006C38.1128 37.5418 38.1128 37.7759 38.1128 38.0597H40.2563C40.2706 37.8468 40.2921 37.634 40.2921 37.4212C40.2921 34.463 40.2921 31.5047 40.2921 28.5394C40.2921 25.8295 38.6558 24.212 35.9335 24.2049C33.3755 24.2049 30.8175 24.2049 28.2595 24.2049C25.6872 24.2049 24.1581 25.5812 23.8723 28.1351C23.7937 28.8019 23.3864 29.2134 22.8219 29.185C22.2289 29.1495 21.8502 28.6671 21.8645 27.9719C21.9288 25.2123 24.1295 22.7365 26.8661 22.3179C27.0805 22.2825 27.2877 22.247 27.5664 22.1973C26.5732 20.9559 26.0587 19.6293 26.0873 18.1041C26.1445 15.5573 27.9022 13.2588 30.3673 12.5423C32.8681 11.8116 35.5762 12.7622 37.0195 14.8692C37.4768 15.536 37.434 16.1461 36.9052 16.5008C36.3979 16.8413 35.8477 16.6711 35.3833 16.0468C33.5327 13.5709 29.9029 13.798 28.531 16.4724C27.5235 18.4446 28.3381 20.8566 30.3459 21.8213C32.3465 22.7861 34.7688 21.9278 35.7048 19.9272C35.7906 19.7499 35.8477 19.5583 35.9263 19.3739C36.1835 18.7993 36.6837 18.5723 37.2196 18.7567C37.7341 18.9341 38.0199 19.4803 37.7984 20.0549C37.5769 20.6295 37.2482 21.1545 36.9552 21.7007C36.8766 21.8497 36.7552 21.9845 36.598 22.1973H36.6265Z" fill="#545151"/>
<path d="M15.8767 25.12H17.9488C17.9631 24.8859 17.9774 24.6731 17.9774 24.4603C17.9774 21.5659 17.9774 18.6715 17.9774 15.7843C17.9774 13.2801 16.3769 11.691 13.8546 11.6768C11.2966 11.6697 8.73862 11.6697 6.18062 11.6768C3.79411 11.6768 2.31504 13.0034 2.02923 15.3586C1.93634 16.1602 1.49334 16.6001 0.871699 16.5008C0.307225 16.4156 -0.0143116 15.9474 0.0142694 15.2735C0.135739 12.4146 2.28646 10.1019 5.17314 9.73302C5.25888 9.71883 5.34462 9.69755 5.51611 9.66208C5.36606 9.42798 5.23745 9.23644 5.10883 9.0449C3.88699 7.1295 3.75123 5.13607 4.80159 3.13555C5.84479 1.17049 7.55965 0.141852 9.80326 -2.90629e-05C10.4964 -0.0425934 10.9894 0.368862 11.018 0.950575C11.0465 1.50391 10.6393 1.96503 9.95331 1.97921C8.167 2.01468 6.51645 3.35546 6.21635 5.17154C5.92339 6.92377 6.83084 8.63344 8.45281 9.34285C10.0462 10.0381 11.9468 9.57695 13.0329 8.22199C14.1404 6.84574 14.1547 4.89487 13.0758 3.49025C12.9972 3.38384 12.8972 3.29162 12.8186 3.1852C12.4113 2.64606 12.447 2.09272 12.9114 1.71673C13.333 1.37622 13.9261 1.43297 14.3405 1.88699C15.2265 2.84469 15.741 3.97265 15.8624 5.27086C16.0125 6.8883 15.5338 8.32131 14.4834 9.6408C14.712 9.69046 14.8764 9.72593 15.0407 9.75431C17.7702 10.1516 19.9567 12.5352 19.9852 15.2664C20.0281 18.8418 20.0067 22.4243 19.9995 25.9997C19.9995 26.7801 19.6423 27.1277 18.8563 27.1418C17.906 27.156 16.9485 27.1418 15.9196 27.1418C15.9053 27.4185 15.8839 27.6526 15.8839 27.8867C15.8839 29.3694 15.8839 30.8449 15.8839 32.3276C15.8839 33.0654 15.5123 33.4839 14.8978 33.491C14.2833 33.491 13.8761 33.0725 13.8761 32.356C13.8689 27.4327 13.8689 22.5094 13.8761 17.5791C13.8761 16.8767 14.3191 16.444 14.9193 16.4582C15.5052 16.4795 15.8767 16.8838 15.8767 17.5791C15.8839 19.835 15.8767 22.0838 15.8767 24.3397C15.8767 24.5809 15.8767 24.815 15.8767 25.1271V25.12Z" fill="#545151"/>
<path d="M58.5053 9.63378C59.0912 9.78275 59.6342 9.86788 60.1487 10.0523C62.3566 10.8327 63.9071 12.9751 63.9786 15.3161C64 15.983 63.657 16.4441 63.0854 16.5079C62.4995 16.5718 62.035 16.1674 61.9779 15.458C61.8278 13.6348 60.9275 12.3934 59.1555 11.8471C58.7411 11.7194 58.2766 11.6911 57.8408 11.6911C55.2828 11.6769 52.7248 11.6769 50.1668 11.6911C47.6016 11.6981 46.0154 13.2872 46.0154 15.834C46.0154 18.7071 46.0154 21.5731 46.0154 24.4462V25.113H48.1232C48.1232 24.8364 48.1232 24.6022 48.1232 24.3681C48.1232 22.1619 48.1232 19.9485 48.1232 17.7423C48.1232 16.9052 48.4805 16.4583 49.1307 16.4654C49.7667 16.4725 50.1382 16.9336 50.1382 17.7636C50.1382 22.4244 50.1382 27.0852 50.1382 31.746C50.1382 31.8808 50.1382 32.0155 50.1168 32.1432C50.0167 32.7037 49.5737 33.0726 49.0378 33.0087C48.4734 32.9449 48.1375 32.6185 48.1304 32.051C48.109 30.6819 48.1232 29.3127 48.1161 27.9435C48.1161 27.7094 48.1161 27.4682 48.1161 27.1561C47.1372 27.1561 46.2298 27.1561 45.3223 27.1561C44.3148 27.1561 44.0004 26.844 43.9933 25.8579C43.9933 22.4315 43.979 19.0121 43.9933 15.5857C44.0076 12.514 46.094 10.1729 49.1736 9.74019C49.2593 9.726 49.3379 9.69762 49.4808 9.66215C49.3379 9.44224 49.2236 9.26489 49.1093 9.09463C47.6016 6.86 47.816 3.91596 49.6237 1.92253C50.274 1.20603 50.8956 1.07124 51.3886 1.53945C51.8745 2.00057 51.803 2.51843 51.1314 3.25622C50.0596 4.43383 49.8167 6.10093 50.5098 7.51265C51.2243 8.95984 52.6533 9.76147 54.3325 9.64797C55.8473 9.54865 57.1834 8.47744 57.6622 6.99479C58.2909 5.02973 57.2263 2.90861 55.2685 2.22758C55.0827 2.16373 54.8827 2.12826 54.6897 2.06441C54.0967 1.86578 53.8109 1.3692 53.9609 0.837141C54.1181 0.290898 54.6111 -0.0141468 55.2113 0.134828C57.4192 0.666883 58.9126 2.00766 59.5985 4.15716C60.1558 5.9023 59.8629 7.56231 58.8554 9.08753C58.7411 9.26489 58.6268 9.44224 58.4981 9.64087L58.5053 9.63378Z" fill="#545151"/>
<path d="M33.1111 51.9782H36.1121C36.1121 51.3185 36.1121 50.6658 36.1121 50.0132C36.1121 49.1903 36.498 48.7221 37.1267 48.7363C37.7484 48.7505 38.1199 49.2329 38.1271 50.0487C38.1271 50.9567 38.1342 51.8577 38.1271 52.7657C38.1199 53.6454 37.7484 54.0001 36.8552 54.0001C33.697 54.0001 30.5388 54.0001 27.3806 54.0001C26.4517 54.0001 26.1159 53.6595 26.1159 52.7018C26.1159 48.7717 26.1159 44.8416 26.1159 40.9115C26.1159 40.6703 26.1159 40.4362 26.1159 40.1028C25.1227 40.1028 24.1724 40.1028 23.2221 40.1028C22.2289 40.1028 21.8788 39.7694 21.8788 38.8117C21.8788 36.648 21.8788 34.4843 21.8788 32.3206C21.8788 31.5828 22.1717 31.1643 22.7148 31.0791C23.3864 30.9727 23.8795 31.4126 23.8866 32.1716C23.9009 33.8955 23.8866 35.6193 23.8866 37.3361C23.8866 37.5702 23.8866 37.8114 23.8866 38.0739H26.1088V37.3716C26.1088 35.1228 26.1088 32.8668 26.1088 30.618C26.1088 29.6461 26.4232 29.2063 27.102 29.1992C27.7808 29.1992 28.1237 29.6532 28.1237 30.5967C28.1237 37.4638 28.1237 44.3309 28.1237 51.1979V51.9641H31.089C31.089 51.7016 31.089 51.4462 31.089 51.1908C31.089 47.9914 31.089 44.7849 31.089 41.5855C31.089 41.3017 31.0461 40.9328 31.2033 40.7554C31.4463 40.4717 31.825 40.1808 32.1822 40.1312C32.6538 40.0744 33.0039 40.4291 33.0825 40.9257C33.1183 41.1669 33.1111 41.4081 33.1111 41.6493C33.1111 44.8274 33.1111 48.0056 33.1111 51.1837V51.9782Z" fill="#545151"/>
<path d="M4.11566 27.149C3.14391 27.149 2.26504 27.149 1.37903 27.149C0.328681 27.149 0.00714525 26.844 0.00714525 25.8224C0 23.6587 0 21.4951 0 19.3314C0 18.8419 0.0928882 18.395 0.58591 18.1608C1.29329 17.8203 2.00067 18.3098 2.01496 19.1753C2.0364 20.8992 2.02211 22.6159 2.02211 24.3398C2.02211 24.581 2.02211 24.8151 2.02211 25.0988H4.11566C4.11566 24.8435 4.11566 24.6093 4.11566 24.3752C4.11566 22.1903 4.11566 20.0053 4.11566 17.8203C4.11566 17.5579 4.1371 17.2812 4.22999 17.0471C4.40862 16.6072 4.80875 16.3448 5.23747 16.5079C5.57329 16.6356 5.86625 16.9832 6.08061 17.2954C6.19493 17.4656 6.11633 17.7707 6.11633 18.0119C6.11633 24.6164 6.11633 31.2139 6.11633 37.8185V38.6485H8.99587C8.99587 38.3718 8.99587 38.1377 8.99587 37.8965C8.99587 34.7184 8.99587 31.5402 8.99587 28.3621C8.99587 27.7733 9.13877 27.298 9.76756 27.1419C10.4606 26.9646 11.0037 27.4683 11.0108 28.2983C11.0251 29.71 11.0108 31.1217 11.0108 32.5405C11.0108 34.3282 11.0108 36.1159 11.0108 37.9036C11.0108 38.1377 11.0108 38.3789 11.0108 38.6556H13.8475C13.8475 37.9958 13.8403 37.3645 13.8475 36.726C13.8618 35.9669 14.2548 35.4987 14.8621 35.4987C15.4695 35.4987 15.8482 35.9598 15.8553 36.726C15.8625 37.6766 15.8696 38.6272 15.8553 39.5707C15.841 40.3227 15.5052 40.6845 14.7549 40.6916C11.5753 40.7058 8.39567 40.7058 5.21603 40.6916C4.40862 40.6916 4.10137 40.2943 4.09423 39.3792C4.09423 35.6051 4.09423 31.8311 4.09423 28.05C4.09423 27.7875 4.09423 27.525 4.09423 27.149H4.11566Z" fill="#545151"/>
<path d="M50.1382 38.6556H52.9749V37.9604C52.9749 34.8248 52.9749 31.6892 52.9749 28.5537C52.9749 28.2912 52.9749 28.0145 53.0606 27.7733C53.2107 27.2909 53.5822 27.0639 54.0895 27.1136C54.5968 27.1632 54.8969 27.4541 54.9684 27.9507C55.0041 28.1706 54.9898 28.3905 54.9898 28.6104C54.9898 31.7034 54.9898 34.7893 54.9898 37.8823C54.9898 38.1164 54.9898 38.3576 54.9898 38.6414H57.8694V37.8682C57.8694 31.2707 57.8694 24.6661 57.8694 18.0686C57.8694 17.8274 57.8622 17.5791 57.8837 17.3379C57.9408 16.8343 58.2338 16.5292 58.7411 16.4725C59.277 16.4086 59.6557 16.6498 59.8129 17.1606C59.8843 17.3876 59.8843 17.6359 59.8843 17.8771C59.8843 20.2607 59.8843 22.6443 59.8843 25.0847H61.9422C61.9493 24.8647 61.9707 24.6377 61.9707 24.4036C61.9707 23.0132 61.9707 21.6228 61.9707 20.2323C61.9707 19.5016 62.3637 19.0618 62.9496 19.0476C63.557 19.0334 63.9785 19.5016 63.9857 20.2536C64 22.1548 64 24.0489 63.9857 25.9501C63.9857 26.8085 63.6213 27.1348 62.7496 27.1419C61.8207 27.149 60.8918 27.1419 59.8772 27.1419V27.979C59.8772 31.7318 59.8772 35.4846 59.8772 39.2373C59.8772 40.3936 59.5771 40.6916 58.4267 40.6916C55.4686 40.6916 52.5104 40.6916 49.5523 40.6916C48.3805 40.6916 48.1161 40.422 48.1161 39.2373C48.1161 38.2016 48.1089 37.1587 48.1161 36.123C48.1232 35.4278 48.4876 35.0234 49.0736 35.0022C49.6738 34.9809 50.1025 35.4207 50.1239 36.1159C50.1453 36.9459 50.1239 37.783 50.1239 38.6485L50.1382 38.6556Z" fill="#545151"/>
</g>
<defs>
<clipPath id="clip0_146_486">
<rect width="64" height="54" fill="white"/>
</clipPath>
</defs>
</svg>
