<svg width="68" height="68" viewBox="0 0 68 68" fill="none" xmlns="http://www.w3.org/2000/svg">
<g clip-path="url(#clip0_146_487)">
<path d="M41.2978 50.2865C40.5108 51.2247 39.7715 52.1151 39.0163 52.9897C38.8732 53.1566 38.6744 53.2679 38.4995 53.4031C37.9431 53.8006 37.7072 54.3598 37.792 55.0806C39.1514 55.4384 40.5267 55.7723 41.886 56.1698C43.4918 56.6469 44.7717 57.5771 45.3282 59.2069C45.6223 60.0735 45.7018 61.0196 45.829 61.9339C46.0039 63.2457 46.1311 64.5655 46.29 65.9966C47.077 65.9966 47.864 65.9966 48.6511 65.9966C49.0724 65.9966 49.4937 65.9648 49.9071 66.0204C50.4556 66.0999 50.7815 66.4418 50.7736 67.0142C50.7656 67.5548 50.4397 67.8649 49.923 67.9683C49.7322 68.008 49.5255 67.9921 49.3268 67.9921C39.1673 67.9921 29.0078 67.9921 18.8484 67.9921C18.7132 67.9921 18.586 67.9921 18.4509 67.9921C17.8308 67.9444 17.4095 67.5389 17.4095 66.9983C17.4095 66.4577 17.8229 66.0284 18.4509 66.0125C19.3333 65.9886 20.2236 66.0045 21.106 66.0045C21.3445 66.0045 21.583 66.0045 21.8692 66.0045C22.06 64.327 22.2667 62.713 22.4336 61.0911C22.7357 58.2369 23.9917 56.7661 26.7899 56.0347C27.9824 55.7246 29.1827 55.4225 30.3593 55.1283C30.558 54.3253 30.3116 53.8563 29.6597 53.3315C28.7694 52.616 28.0936 51.6222 27.3384 50.7397C27.2113 50.5966 27.1477 50.4058 27.0523 50.2309L26.8694 50.2468C26.8694 50.8669 26.8853 51.495 26.8694 52.1151C26.8535 52.5524 26.8694 53.0135 26.7104 53.411C26.4322 54.1266 25.7008 54.4446 24.7628 54.3174C24.1984 54.2379 23.626 54.1186 23.0775 53.9596C21.8771 53.6098 21.2173 52.5603 21.6466 51.3996C22.1474 50.04 22.8311 48.7521 23.4829 47.4482C23.6578 47.0984 23.785 46.844 23.6101 46.4306C23.165 45.3731 23.3716 44.3555 24.0076 43.4094C24.1268 43.2345 24.2858 43.0357 24.3017 42.8449C24.3892 41.8352 24.4448 40.8255 24.4925 39.9828C23.952 40.4041 23.3557 41.064 22.6164 41.39C21.7738 41.7637 21.0106 41.2389 20.2872 40.4041C20.2872 41.6762 20.2872 42.7257 20.2872 43.7751C20.2872 44.2839 20.3111 44.7928 20.2554 45.3016C20.1839 45.9138 19.7864 46.2556 19.2379 46.2159C18.6337 46.1682 18.3158 45.8025 18.3078 45.2141C18.2919 43.799 18.2999 42.3838 18.2919 40.9607C18.2919 40.8573 18.276 40.746 18.2681 40.5472C18.0773 40.6903 17.9421 40.7778 17.8229 40.8812C16.7974 41.7716 15.6209 41.6842 14.7544 40.6108C13.8561 39.4898 12.9896 38.337 12.0834 37.224C11.9562 37.065 11.6779 36.8662 11.5348 36.9059C9.95289 37.3671 8.3312 37.7566 6.81284 38.4006C5.35013 39.0128 4.58698 40.3008 4.39619 41.8909C4.06232 44.6815 3.73639 47.4721 3.41046 50.2627C3.40251 50.3501 3.40251 50.4376 3.39456 50.6045C5.06395 50.7794 6.7254 50.9543 8.43454 51.1372C8.50608 49.9208 8.56173 48.7759 8.63328 47.6311C8.64918 47.3926 8.66508 47.1381 8.74457 46.9155C8.91946 46.4385 9.32488 46.1602 9.78595 46.3351C10.1198 46.4624 10.3981 46.8281 10.6048 47.1461C10.716 47.321 10.6365 47.6231 10.6207 47.8616C10.3345 53.2997 10.0324 58.7378 9.74621 64.168C9.71441 64.7404 9.74621 65.3128 9.74621 65.9966C10.6207 65.9966 11.5428 65.9966 12.4649 65.9966C12.8624 65.9966 13.2599 65.9807 13.6574 65.9966C14.3251 66.0284 14.7544 66.4418 14.7385 67.0142C14.7226 67.5628 14.3092 67.9603 13.6733 67.9842C13.1247 68.008 12.5683 67.9842 12.0118 67.9842C9.70646 67.9842 7.40905 67.9444 5.1037 67.9921C1.64567 68.0716 -0.349656 65.6308 0.0398696 62.2201C0.747375 55.979 1.41513 49.73 2.15444 43.4968C2.30548 42.2168 2.50421 40.8891 2.98118 39.6965C3.87153 37.4863 5.73966 36.3097 7.97347 35.6975C9.92904 35.1648 11.9482 34.8309 13.7448 33.8132C14.1502 33.5827 14.3569 33.3601 14.2933 32.8989C14.2615 32.6843 14.2615 32.4537 14.2933 32.239C14.3808 31.7143 14.1264 31.4599 13.6971 31.2055C10.3424 29.194 8.54583 26.2047 8.2517 22.3169C8.2199 21.8637 8.11656 21.6252 7.63959 21.4742C5.58067 20.8222 4.34055 18.4689 5.53297 16.4893C5.67606 16.2507 5.68401 15.9009 5.68401 15.5988C5.69991 13.6748 5.68401 11.7667 6.22458 9.87449C7.98937 3.60161 14.1423 -0.620068 20.6211 0.0716188C26.7422 0.723554 31.5358 5.09629 32.6249 11.1704C32.8872 12.6333 32.7839 14.1677 32.8633 15.6704C32.8792 15.9725 32.9269 16.2905 33.0541 16.5608C33.9922 18.5087 33.1972 20.6394 31.1383 21.3708C30.4546 21.6173 30.3434 21.975 30.2718 22.6031C29.8823 26.2683 28.2606 29.2179 25.0172 31.118C24.4607 31.444 24.3176 31.7938 24.2779 32.406C24.2222 33.2885 24.4528 33.845 25.3352 34.0597C25.3988 34.0756 25.4624 34.1074 25.518 34.1392C26.6468 34.8547 27.5928 34.974 28.8171 34.0199C30.6295 32.6127 32.8554 32.1913 35.1687 32.4855C35.28 32.5014 35.3833 32.4855 35.3833 32.4855C35.2561 30.4661 35.1131 28.4467 34.9938 26.4352C34.7871 22.945 34.5327 19.4548 34.3976 15.9645C34.2943 13.2455 34.6043 10.5741 35.7888 8.06975C36.6473 6.265 37.9192 4.88958 39.851 4.19789C40.0894 4.11044 40.3279 3.94348 40.479 3.75267C42.1245 1.6458 44.3424 0.540694 46.926 0.182925C52.8484 -0.64392 57.5147 1.45499 60.8217 6.43991C62.2447 8.57858 62.9681 10.9876 63.0714 13.5635C63.1032 14.3983 62.7614 14.8674 62.1175 14.8753C61.4974 14.8833 61.1397 14.4619 61.0841 13.6748C60.6468 8.19696 57.9679 4.26149 52.7212 2.53625C49.136 1.35959 45.4951 1.5822 42.5697 4.4364C41.7747 5.20759 41.0434 5.90723 39.9861 6.36041C38.3246 7.06799 37.5694 8.62628 37.0607 10.272C36.4247 12.3232 36.2896 14.446 36.4088 16.5767C36.6632 21.2834 36.9494 25.99 37.2276 30.6967C37.2912 31.7541 37.4025 31.8336 38.4836 31.8336C40.2007 31.8336 41.9178 31.8336 43.7065 31.6746C43.5554 31.5553 43.4203 31.4122 43.2613 31.3088C39.5489 29.0589 37.6728 25.7594 37.6489 21.4185C37.641 19.7171 37.633 18.0078 37.633 16.3064C37.633 14.8276 38.1498 14.1677 39.5727 13.802C40.8923 13.4601 42.0212 12.8003 42.9831 11.8462C44.1437 10.7013 45.0261 10.757 46.0993 11.9655C49.1201 15.3762 52.9915 17.0299 57.4829 17.3558C59.1364 17.4751 59.7644 18.135 59.7803 19.7807C59.8042 21.8637 59.8042 23.9388 58.9456 25.9105C57.952 28.1923 56.3939 29.9732 54.2554 31.2532C54.0647 31.3645 53.8898 31.4997 53.5638 31.7223C53.85 31.7859 53.9534 31.8256 54.0488 31.8256C55.8612 31.8256 57.6817 31.8256 59.4942 31.8256C60.0824 31.8256 60.2812 31.5076 60.313 30.9431C60.5435 26.8805 60.7899 22.8098 61.0682 18.7551C61.092 18.3894 61.3305 17.9442 61.6087 17.7216C61.8075 17.5626 62.3719 17.5944 62.5627 17.7693C62.825 18.0157 63.0237 18.4848 63.0158 18.8505C62.984 20.3134 62.8727 21.7683 62.7853 23.2233C62.6263 25.831 62.4593 28.4387 62.3083 31.0385C62.197 32.8512 61.2033 33.8132 59.367 33.8212C57.6658 33.8212 55.9566 33.8212 54.2554 33.8212C54.0885 33.8212 53.9216 33.853 53.7149 34.0199C53.8977 34.0915 54.0726 34.1869 54.2554 34.2346C56.052 34.6878 57.8566 35.133 59.6611 35.5782C62.1255 36.1904 64.1605 37.4227 65.0986 39.8794C65.5437 41.0322 65.7107 42.3202 65.8538 43.5605C66.5772 49.7538 67.2688 55.9552 67.9365 62.1565C68.1353 63.993 67.8173 65.6944 66.2989 66.9586C65.4483 67.6661 64.4308 67.9603 63.3417 67.9603C60.4402 67.9762 57.5465 67.9683 54.645 67.9603C53.9057 67.9603 53.4764 67.5787 53.4684 66.9824C53.4605 66.3623 53.9057 65.9807 54.6847 65.9727C55.893 65.9648 57.1093 65.9727 58.3812 65.9727C58.2938 64.2157 58.2143 62.5143 58.1269 60.8208C57.8884 56.4004 57.6499 51.9799 57.4114 47.5595C57.3717 46.7804 57.7214 46.3033 58.3256 46.2556C58.9536 46.2079 59.3431 46.6134 59.3988 47.4005C59.4783 48.609 59.5419 49.8174 59.6214 51.0895C61.3066 50.9146 62.9283 50.7397 64.6295 50.5568C64.5103 49.4517 64.399 48.3864 64.2798 47.313C64.089 45.6435 63.8584 43.9739 63.6994 42.3043C63.4451 39.625 61.7916 38.2575 59.3829 37.5499C59.1921 37.4943 58.9933 37.4625 58.8026 37.4227C58.5879 38.504 58.4448 39.5932 58.1507 40.6426C57.4988 42.9801 55.9169 44.1885 53.8262 43.8785C52.9517 43.7513 52.0773 43.4014 51.2823 42.988C50.3681 42.511 49.5493 41.8591 48.7464 41.3343C47.3553 42.1691 45.9641 43.0119 44.5014 43.8944C44.5014 43.8944 44.5571 44.0454 44.573 44.1885C44.6286 44.753 44.875 45.4049 44.6842 45.8661C44.3186 46.7486 44.6922 47.3051 45.0897 48.0206C45.67 49.078 46.147 50.207 46.5365 51.3519C46.926 52.4888 46.3218 53.5541 45.1533 53.896C44.5014 54.0948 43.8178 54.2299 43.142 54.2935C42.0927 54.3889 41.3137 53.6575 41.2819 52.5921C41.258 51.805 41.2819 51.0179 41.2819 50.2547L41.2978 50.2865ZM28.5388 19.6456C28.4832 19.6456 28.4196 19.6297 28.3639 19.6217C28.3639 18.6279 28.3798 17.6341 28.348 16.6403C28.348 16.4097 28.2208 16.1156 28.0459 15.9804C26.8138 15.0184 26.2335 13.7384 26.0586 12.2199C25.9711 11.4328 25.8916 11.3771 25.0967 11.4805C21.2014 11.9575 17.2982 12.1006 13.395 11.4964C12.6398 11.3771 12.5524 11.4566 12.4888 12.2119C12.3536 13.7146 11.7495 14.9628 10.573 15.9327C10.3901 16.0838 10.2391 16.3938 10.2311 16.6324C10.2073 18.3099 10.2152 19.9954 10.2311 21.6729C10.247 24.0501 11.0022 26.149 12.6796 27.8584C15.0724 30.2912 17.966 31.3009 21.3207 30.5058C24.5641 29.7426 26.8615 27.7232 27.8472 24.5271C28.3242 22.9768 28.3242 21.2754 28.5388 19.6376V19.6456ZM44.4935 13.1819C43.1977 14.5016 41.6952 15.3444 39.9702 15.7896C39.8351 15.8214 39.6681 16.052 39.6681 16.1951C39.684 18.4689 39.4932 20.7825 39.7953 23.0245C40.5267 28.4387 45.9244 31.8733 51.2028 30.4104C55.8215 29.1225 58.5005 24.7338 57.7055 19.3832C52.5225 19.089 48.0628 17.1968 44.5014 13.1819H44.4935ZM30.7965 14.7004C31.2734 10.2084 28.8568 5.61307 24.9138 3.43465C20.8199 1.17673 15.7322 1.57425 12.1311 4.46025C8.83996 7.09185 7.53625 10.5662 7.73498 14.8912C8.44249 14.597 9.07845 14.4539 9.57132 14.1041C10.2788 13.5953 10.4458 12.7684 10.5253 11.9257C10.7001 10.1289 11.8369 9.27821 13.6017 9.47697C15.3586 9.67573 17.1233 9.89835 18.8881 9.8904C20.9629 9.88244 23.0298 9.63598 25.1046 9.49287C26.9171 9.36567 27.8552 10.1369 28.0459 11.9337C28.2367 13.7623 28.9283 14.4619 30.8044 14.7004H30.7965ZM26.5276 65.9648C26.5514 65.8773 26.5594 65.8534 26.5594 65.8375C26.5991 65.3287 26.6389 64.8199 26.6707 64.319C26.7263 63.4922 27.1318 63.039 27.7439 63.0946C28.3719 63.1503 28.6978 63.6432 28.6581 64.4701C28.6342 64.963 28.6024 65.4639 28.5706 65.9648H39.525C39.5489 65.8773 39.5727 65.8137 39.5727 65.7501C39.5568 65.3287 39.5489 64.9073 39.525 64.4939C39.4773 63.6273 39.8192 63.1185 40.471 63.0867C41.0672 63.0628 41.4568 63.516 41.5203 64.3588C41.5601 64.8835 41.576 65.4082 41.6078 65.9568H44.2947C44.0562 64.0646 43.8496 62.2281 43.5872 60.3915C43.4362 59.3341 42.7525 58.6265 41.7827 58.2687C40.7969 57.911 39.7635 57.6804 38.746 57.3942C37.8556 60.1689 36.4247 61.4648 34.2307 61.5284C33.229 61.5523 32.3069 61.2979 31.4722 60.7334C30.3116 59.9463 29.6756 58.8253 29.453 57.3703C28.3957 57.6725 27.3782 57.8951 26.4084 58.2449C25.1523 58.6901 24.5641 59.676 24.4369 60.9798C24.3335 62.077 24.1825 63.1741 24.0553 64.2713C23.9917 64.8278 23.944 65.3923 23.8884 65.9727H26.5037L26.5276 65.9648ZM28.4514 43.5843C28.4514 45.0154 28.348 46.4147 28.4752 47.7901C28.7455 50.7794 31.4642 52.9897 34.4612 52.767C37.4264 52.5524 39.6204 50.3024 39.7317 47.3051C39.7794 46.0569 39.7317 44.8087 39.7317 43.5207C37.5218 43.6956 35.5741 43.3458 34.1035 41.6603C32.8475 42.7469 30.9608 43.3882 28.4434 43.5843H28.4514ZM41.7747 41.8114C41.9258 38.6709 39.0799 34.6003 34.2704 34.4016C30.1685 34.2267 26.2414 37.8997 26.3686 41.8193C26.4958 41.8193 26.6548 41.8511 26.7343 41.7955C27.3702 41.3105 28.0618 41.4695 28.7694 41.541C30.2798 41.6921 31.6709 41.4774 32.6885 40.1418C33.5947 38.9572 34.5804 38.9651 35.4946 40.1577C36.226 41.1117 37.1958 41.5251 38.3564 41.5728C39.4773 41.6205 40.63 41.1992 41.7032 41.8273C41.7191 41.8352 41.7429 41.8273 41.7668 41.8193L41.7747 41.8114ZM60.3925 65.9886C61.3225 65.9886 62.1811 65.9886 63.0476 65.9886C65.0906 65.9886 66.1717 64.8358 65.973 62.7925C65.7266 60.2643 65.4404 57.7361 65.1622 55.2078C65.0668 54.3412 64.9555 53.4746 64.8442 52.5762C63.0953 52.7591 61.4338 52.942 59.7088 53.1248C59.9393 57.4419 60.1619 61.6874 60.3845 65.9886H60.3925ZM3.15607 52.5842C3.11633 52.8783 3.08453 53.1169 3.06068 53.3554C2.90169 54.7388 2.7427 56.1221 2.59166 57.5055C2.39292 59.3102 2.17828 61.107 2.02724 62.9118C1.88415 64.5416 2.7109 65.758 4.15771 65.9171C5.28654 66.0443 6.43922 65.9409 7.63164 65.9409C7.84628 61.6636 8.06091 57.4101 8.27555 53.1248C6.52666 52.942 4.86521 52.767 3.16402 52.5842H3.15607ZM43.3487 36.2779C46.139 39.7601 51.5129 39.5693 54.0329 36.2858C53.23 35.9916 52.1568 36.0393 51.9103 34.9819C51.7116 34.1471 51.7116 33.2646 51.6162 32.3424C49.6447 32.8989 47.7051 32.8194 45.7733 32.3424C45.6938 33.2487 45.7097 34.1233 45.5189 34.9501C45.2725 36.0155 44.2152 35.9916 43.3487 36.2779ZM32.6487 54.7387C32.3625 55.4304 32.2035 56.1301 31.8061 56.6469C31.5596 56.9728 31.4642 57.2034 31.5596 57.5532C31.8458 58.6663 32.8236 59.4772 33.9445 59.517C35.1687 59.5567 36.2101 58.8412 36.5758 57.7043C36.7109 57.2829 36.7348 56.9728 36.2975 56.631C35.9954 56.4004 35.8921 55.8836 35.7649 55.4781C35.6854 55.2396 35.7252 54.9693 35.7172 54.7387H32.6567H32.6487ZM22.2269 32.3424C20.2634 32.8751 18.3237 32.8512 16.233 32.3265C16.3204 32.9546 16.2091 33.6145 16.4874 33.9325C17.3221 34.8865 18.3158 35.7134 19.2777 36.6277C20.0567 35.8962 20.7483 35.1489 21.5433 34.5288C22.2746 33.9563 22.4495 33.2964 22.2269 32.3503V32.3424ZM51.1154 40.6824C51.9342 41.072 52.7371 41.541 53.5877 41.8352C54.804 42.2486 55.6466 41.8829 56.0441 40.6506C56.4336 39.4739 56.5926 38.2257 56.8549 37.0093C56.7834 36.9536 56.7039 36.898 56.6323 36.8503C56.4416 36.9218 56.1792 36.9457 56.0679 37.0809C54.796 38.7504 53.1664 39.8953 51.1074 40.6903L51.1154 40.6824ZM22.1633 39.466C23.0616 38.3211 23.9361 37.2001 24.8423 36.0473C24.4528 35.8565 24.1268 35.6736 23.785 35.5464C23.6499 35.4987 23.4193 35.5067 23.3239 35.5862C22.4495 36.3812 21.591 37.2001 20.7245 38.019C21.2173 38.5199 21.6705 38.9651 22.1633 39.466ZM13.7289 36.0632C14.6351 37.224 15.5096 38.337 16.3602 39.4262C16.8849 38.9333 17.3459 38.496 17.8388 38.027C16.9643 37.2001 16.1217 36.3971 15.2552 35.61C15.1598 35.5226 14.9293 35.5067 14.8021 35.5544C14.4603 35.6816 14.1343 35.8644 13.7289 36.0632ZM43.468 39.2911C43.6111 40.1338 43.7542 40.9527 43.9211 41.9068C44.7081 41.4774 45.4713 41.064 46.2662 40.6347C45.2487 40.1497 44.3663 39.7283 43.468 39.299V39.2911ZM44.7717 51.9322C44.1596 50.6681 43.6031 49.5153 43.0467 48.3625C43.0228 48.3864 42.999 48.4102 42.9751 48.4341C43.1261 49.7061 43.2772 50.9782 43.4282 52.2741C43.7701 52.1867 44.1755 52.0833 44.7717 51.9322ZM25.2 48.4023C25.2 48.4023 25.1523 48.3546 25.1285 48.3307C24.5641 49.5233 23.9917 50.7158 23.3875 51.9879C23.952 52.1072 24.3733 52.1946 24.7231 52.2741C24.89 50.9464 25.049 49.6743 25.208 48.4023H25.2ZM39.4614 33.8848C40.0338 34.6878 40.5505 34.8945 41.4329 34.6798C42.053 34.5288 42.681 34.3857 43.301 34.2267C43.4441 34.1869 43.5634 34.0915 43.6985 34.0199C43.6826 33.9802 43.6667 33.9325 43.6508 33.8927H39.4614V33.8848ZM8.18811 16.8391C7.47265 17.0855 7.05928 17.5944 7.07517 18.1747C7.08312 18.771 7.52035 19.2798 8.18811 19.4468V16.8391ZM30.4229 16.8391V19.5422C31.0827 19.2003 31.5278 18.7869 31.4722 18.0793C31.4245 17.4672 31.0747 17.0378 30.4229 16.8391ZM41.8304 44.0375V46.5896C42.4425 46.2954 42.7923 45.9058 42.7843 45.2857C42.7684 44.6974 42.4266 44.3237 41.8304 44.0375ZM26.3925 44.0136C25.7326 44.3237 25.3511 44.7371 25.3908 45.3811C25.4306 45.9774 25.7883 46.359 26.3925 46.5737V44.0057V44.0136Z" fill="#545151"/>
</g>
<defs>
<clipPath id="clip0_146_487">
<rect width="68" height="68" fill="white"/>
</clipPath>
</defs>
</svg>
