<svg width="20" height="21" viewBox="0 0 20 21" fill="none" xmlns="http://www.w3.org/2000/svg">
<path fill-rule="evenodd" clip-rule="evenodd" d="M0 10.5C0 5.11704 4.36704 0.75 9.75 0.75C15.133 0.75 19.5 5.11704 19.5 10.5C19.5 15.883 15.133 20.25 9.75 20.25C4.36704 20.25 0 15.883 0 10.5ZM9.75 2.25C5.19546 2.25 1.5 5.94546 1.5 10.5C1.5 15.0545 5.19546 18.75 9.75 18.75C14.3045 18.75 18 15.0545 18 10.5C18 5.94546 14.3045 2.25 9.75 2.25Z" fill="#545151"/>
<path fill-rule="evenodd" clip-rule="evenodd" d="M7.34467 5.46967C7.63756 5.17678 8.11244 5.17678 8.40533 5.46967L12.9053 9.96967C13.1982 10.2626 13.1982 10.7374 12.9053 11.0303L8.40533 15.5303C8.11244 15.8232 7.63756 15.8232 7.34467 15.5303C7.05178 15.2374 7.05178 14.7626 7.34467 14.4697L11.3143 10.5L7.34467 6.53033C7.05178 6.23744 7.05178 5.76256 7.34467 5.46967Z" fill="#545151"/>
</svg>
