
<svg xmlns="http://www.w3.org/2000/svg"  style="display: none">

  <symbol id="construccion-icon" viewBox="0 0 69 60">
    <g clip-path="url(#clip0_816_2317)">
      <path d="M15.2984 10.9938C13.5689 12.8431 12.1538 14.8961 11.0296 17.1607C10.5972 18.0384 9.92902 18.3126 9.23721 17.96C8.55327 17.6074 8.4039 16.9022 8.83628 16.0402C10.0862 13.5562 11.6271 11.2681 13.5453 9.25425C16.1396 6.53517 19.0876 4.39595 22.9004 3.70638C23.152 3.65937 23.3878 3.45563 23.608 3.29891C24.685 2.57017 25.6912 1.70038 26.839 1.11268C29.4333 -0.211599 32.1298 -0.415334 34.842 0.854093C35.0621 0.95596 35.3294 0.99514 35.581 1.02648C36.9017 1.1832 38.246 1.25373 39.551 1.48097C49.425 3.22839 56.0129 8.85461 59.2911 18.2891C61.0678 23.406 61.5238 28.711 61.3429 34.0943C61.3194 34.7133 61.453 35.1913 61.8933 35.6693C63.7957 37.785 65.7218 39.8772 67.4985 42.1026C70.1478 45.4251 69.1887 50.299 65.5488 52.5088C62.1841 54.554 58.6072 56.1368 54.8494 57.3044C53.6544 57.6727 52.4359 57.9861 51.2095 58.2682C50.4312 58.4406 49.8416 58.041 49.6844 57.3436C49.535 56.7089 49.9124 56.129 50.6278 55.8939C50.7457 55.8547 50.8794 55.8312 50.9973 55.7999C55.6198 54.695 59.9751 52.9476 64.063 50.5341C66.7909 48.9199 67.357 45.6602 65.2815 43.2545C63.9765 41.7422 62.6479 40.2455 61.3272 38.7488C61.2014 38.6078 61.0521 38.4902 60.8713 38.31C59.9593 41.0839 57.9861 42.8549 55.6984 44.3751C55.384 44.5866 55.1009 44.9236 54.9359 45.2605C54.5192 46.1068 53.9217 46.7337 53.0413 47.0706C49.8652 48.2695 46.587 48.9199 43.183 48.7475C42.4204 48.7083 41.6657 48.4654 40.9032 48.4654C35.2901 48.4341 29.7478 47.7602 24.2605 46.6005C18.0263 45.284 12.1774 43.1918 7.58631 38.4824C6.46998 37.3305 5.77817 36.1003 5.70742 34.5096C5.66811 33.7025 5.58163 32.9032 5.51874 32.0961C5.39296 32.1274 5.33007 32.1196 5.29862 32.1509C2.33485 34.7525 1.43865 39.219 4.16657 42.5336C5.50302 44.1635 7.25613 45.2448 9.25294 45.8325C16.226 47.8934 22.7511 50.9181 28.9459 54.7107C32.9002 57.132 37.2633 57.9548 41.878 57.3906C43.1987 57.226 44.5194 57.0301 45.848 56.9048C46.5477 56.8342 47.0665 57.3044 47.153 57.9313C47.2395 58.5738 46.8621 59.1302 46.1861 59.3026C45.8873 59.3809 45.5807 59.3966 45.2741 59.4436C42.5069 59.8589 39.7318 60.2037 36.9253 59.8981C33.0967 59.4906 29.6456 58.1115 26.3988 56.0898C20.9115 52.6812 15.0311 50.111 8.82055 48.293C6.92594 47.7367 5.22001 46.8199 3.71847 45.5426C-2.69648 40.0731 0.21226 32.1823 4.92913 29.4475C5.35365 29.2046 5.45585 28.9147 5.47157 28.468C5.55019 26.1329 5.90395 23.837 6.62721 21.6116C6.8945 20.7888 7.48411 20.4362 8.19164 20.6477C8.92275 20.8593 9.22935 21.5254 8.96206 22.3717C7.64134 26.5717 7.7514 30.8423 8.32528 35.1286C8.38031 35.5518 8.63974 36.0141 8.93848 36.3197C11.9494 39.3914 15.4792 41.6011 19.6379 42.847C25.2431 44.5318 30.982 45.4016 36.7995 45.8404C37.6328 45.9031 38.4582 45.9344 39.2758 45.9814C39.3151 45.7777 39.3387 45.6993 39.3387 45.6288C39.323 39.4854 39.0164 33.3655 37.9158 27.3005C36.7209 20.7104 33.8357 14.9588 29.4097 9.96732C28.5214 8.96432 27.4286 8.11803 26.3673 7.27959C24.8108 6.04934 23.0891 5.81426 21.2731 6.69972C20.2354 7.20906 19.2213 7.74974 18.1207 8.31393C21.6662 11.4562 23.4979 13.6267 25.2667 16.6984C28.0968 21.6116 29.449 26.94 29.7163 32.5663C29.7792 33.9219 29.7478 35.2775 29.7163 36.6331C29.6927 37.5264 29.1503 38.0514 28.4034 38.0122C27.6723 37.9731 27.2557 37.4481 27.2557 36.5704C27.2557 36.21 27.2714 35.8574 27.2793 35.4969C27.405 29.0009 26.1393 22.8418 22.7039 17.2313C21.0058 14.4573 18.8989 12.0439 16.1946 9.99867C15.888 10.3434 15.6129 10.6804 15.3141 10.9938H15.2984ZM40.0541 25.6079C41.4535 31.8845 41.8544 38.2552 41.7601 44.665C41.7365 46.0911 41.878 46.2322 43.3245 46.2792C46.1782 46.3732 48.9376 45.9187 51.634 44.9784C52.4516 44.6885 52.774 44.281 52.7032 43.4112C52.3887 39.6891 52.1293 35.9671 51.8463 32.245C51.7834 31.3752 51.6969 30.5132 51.6419 29.6434C51.5869 28.7658 52.0428 28.1624 52.7818 28.1076C53.5208 28.0527 54.0318 28.5699 54.1025 29.471C54.4091 33.3969 54.7 37.3227 55.0066 41.2485C55.0145 41.3974 55.0381 41.5384 55.0852 41.9146C55.7692 41.3112 56.3902 40.8645 56.8855 40.3082C58.1512 38.9134 58.7723 37.2522 58.8745 35.3637C59.1103 30.6386 58.9059 25.9449 57.6088 21.3687C56.4295 17.1842 54.8494 13.1722 51.634 10.03C48.6388 7.09936 45.0383 5.31276 40.9975 4.32543C40.9346 4.30975 40.8638 4.32543 40.7931 4.32543C40.8953 4.23139 40.9975 4.13736 41.0918 4.04333C42.6012 5.71239 44.1342 7.35794 45.6122 9.06619C49.3306 13.3681 51.7991 18.3126 53.0963 23.837C53.3085 24.7224 52.9862 25.3807 52.2787 25.5687C51.5397 25.7646 50.9422 25.3415 50.6828 24.4168C49.4328 19.9503 47.6404 15.7424 44.8732 11.9812C41.9645 8.03967 38.2538 5.10119 33.765 3.13436C31.2886 2.053 28.0575 2.57801 26.4224 4.24707C33.8829 9.52851 38.1045 16.8551 40.062 25.6157L40.0541 25.6079Z" />
    </g>
    <defs>
      <clipPath id="clip0_816_2317">
        <rect width="69" height="60" fill="white"/>
      </clipPath>
    </defs>
  </symbol>


  <symbol id="edificio-icon" viewBox="0 0 56 64">
    <g clip-path="url(#clip0_146_484)">
      <path d="M5.31573 56.4554V55.8246C5.31573 51.9071 5.31573 47.9896 5.31573 44.0721C5.31573 43.6737 5.28287 43.3334 4.91315 43.1093C4.79813 43.0346 4.70775 42.9018 4.62559 42.7856C4.05869 41.9639 4.07512 39.0009 4.65846 38.2041C5.12677 37.565 5.76761 37.3243 6.53991 37.3326C9.40728 37.3409 12.2747 37.3326 15.142 37.3326C15.3639 37.3326 15.5857 37.3326 15.8404 37.3326V15.9937C15.3803 15.9937 14.9202 15.9937 14.4519 15.9937C13.8521 15.9937 13.2441 16.0601 12.6608 15.9605C12.3239 15.9024 11.8803 15.6286 11.7735 15.3381C11.6502 15.0227 11.8474 14.5745 11.9378 14.1927C11.9624 14.0931 12.1021 14.0184 12.1925 13.9271C16.9249 9.51158 21.6326 5.08777 26.3568 0.672258C27.3181 -0.224124 27.6878 -0.215824 28.6491 0.688858C33.3157 5.07117 37.9906 9.45348 42.6573 13.8275C42.7641 13.9271 42.8709 14.0267 42.9695 14.1263C43.2981 14.4666 43.4378 14.8567 43.2488 15.3215C43.0599 15.7697 42.7066 15.9937 42.2301 15.9937C41.2195 15.9937 40.2171 15.9937 39.1655 15.9937V25.5967C39.3873 25.5967 39.6009 25.5967 39.8228 25.5967C42.6491 25.5967 45.4754 25.5967 48.3016 25.5967C49.9284 25.5967 50.7171 26.4017 50.7254 28.0534C50.7254 28.5763 50.7254 29.0992 50.7254 29.6138C50.7418 30.3857 50.4953 31.0247 49.9038 31.5559C49.7477 31.697 49.6819 32.0207 49.6819 32.2614C49.6737 39.0507 49.6737 45.8482 49.6737 52.6375C49.6737 53.9074 49.6737 55.1772 49.6737 56.4637C49.9448 56.5135 50.1913 56.555 50.4214 56.6131C51.6702 56.9036 52.6808 57.9743 52.7711 59.2774C52.8615 60.4808 52.8369 61.6926 52.8204 62.8961C52.804 63.585 52.3932 63.9502 51.7113 63.9834C51.547 63.9834 51.3826 63.9834 51.2183 63.9834C35.4026 63.9834 19.5869 63.9834 3.76292 63.9834C2.40728 63.9834 2.15259 63.7178 2.15259 62.34C2.15259 61.5515 2.15259 60.7547 2.15259 59.9663C2.15259 58.0905 3.11386 56.9036 4.92137 56.5467C5.03639 56.5218 5.15963 56.4886 5.31573 56.4554ZM18.0176 56.4554H23.2676C23.2676 54.7872 23.2758 53.1604 23.2512 51.5419C23.2512 51.3925 23.0211 51.2016 22.8568 51.1103C22.3885 50.853 22.1338 50.4712 22.2324 49.9401C22.3228 49.4089 22.6761 49.1101 23.2183 49.0686C23.3416 49.0603 23.4648 49.0603 23.588 49.052C26.1843 49.052 28.7805 49.052 31.385 49.052C31.5657 49.052 31.804 49.0105 31.9272 49.1018C32.223 49.3176 32.6338 49.5832 32.6831 49.882C32.7406 50.214 32.5516 50.8364 32.3052 50.936C31.6643 51.2099 31.7136 51.6581 31.7136 52.1727C31.7301 53.4011 31.7136 54.6295 31.7136 55.8578C31.7136 56.057 31.7301 56.2562 31.7383 56.472H36.939V15.9937H36.2488C32.7653 15.9937 29.2817 15.9937 25.7981 15.9937C25.6092 15.9937 25.4284 16.002 25.2394 15.9771C24.6972 15.9024 24.2946 15.4294 24.3028 14.9065C24.311 14.3753 24.7218 13.9271 25.2723 13.869C25.4531 13.8524 25.642 13.8607 25.831 13.8607C30.1362 13.8607 34.4495 13.8607 38.7547 13.8607H39.5681C35.4519 10.0013 31.4754 6.26634 27.4742 2.51482C23.4566 6.28294 19.4883 10.0096 15.3885 13.8607C17.2617 13.8607 18.9214 13.8607 20.5892 13.8607C20.7946 13.8607 21 13.8524 21.2054 13.869C21.7887 13.9271 22.1995 14.3836 22.1831 14.9563C22.1667 15.5456 21.7312 15.9771 21.0904 15.9937C20.0634 16.0103 19.0446 15.9937 18.0012 15.9937V56.4637L18.0176 56.4554ZM4.26409 61.8171H50.7089C50.7089 61.2859 50.7089 60.7962 50.7089 60.2982C50.7089 58.9122 50.446 58.6466 49.0904 58.6466C34.7207 58.6466 20.3427 58.6466 5.97301 58.6466C5.74296 58.6466 5.52113 58.63 5.29109 58.6549C4.65024 58.7213 4.28052 59.1114 4.26409 59.7671C4.24766 60.431 4.26409 61.095 4.26409 61.8171ZM47.5293 45.8565C46.4859 45.8565 45.5247 45.8648 44.5552 45.8565C43.7336 45.8482 43.3474 45.4581 43.3392 44.6282C43.331 43.3583 43.3392 42.0884 43.3392 40.8185C43.3392 39.806 43.6761 39.474 44.6702 39.4657C45.615 39.4657 46.5517 39.4657 47.5129 39.4657V36.32C47.4308 36.2951 47.3979 36.2702 47.3568 36.2702C46.5352 36.2702 45.7054 36.2619 44.8838 36.2619C43.6021 36.2619 43.331 35.988 43.331 34.685C43.331 33.7969 43.331 32.9088 43.331 32.0373H39.1573V47.9979C39.4284 47.9979 39.6502 47.9979 39.8803 47.9979C41.3427 47.9979 42.8052 47.9979 44.2758 47.9979C44.7523 47.9979 45.1796 48.1639 45.311 48.6204C45.4014 48.9358 45.3603 49.3674 45.2124 49.6662C45.081 49.9235 44.7113 50.0563 44.4237 50.2555V56.4637H47.5293V45.8648V45.8565ZM7.46832 56.4471H15.8404V52.2474C15.5775 52.2474 15.3556 52.2474 15.1338 52.2474C13.6467 52.2474 12.1678 52.2557 10.6808 52.2474C9.95775 52.2474 9.56339 51.8573 9.55517 51.1269C9.53874 49.7326 9.53874 48.3382 9.55517 46.9438C9.56339 46.2549 9.96597 45.8731 10.6479 45.8648C11.7817 45.8482 12.9155 45.8648 14.0493 45.8648C14.6409 45.8648 15.2324 45.8648 15.8239 45.8648V43.7899H7.46832V56.4637V56.4471ZM29.5528 56.4637V51.2265H25.4366V56.4637H29.5528ZM6.41667 39.4906V41.5572H15.8322V39.4906H6.41667ZM48.5563 27.7712H39.1573V29.8213H48.5563V27.7712ZM39.1573 50.1476V56.472H42.2136V50.1476H39.1573ZM15.8404 48.0394H11.6831V50.0895H15.8404V48.0394ZM47.4965 34.0957V32.029H45.4754V34.0957H47.4965ZM45.4918 41.6236V43.6903H47.4965V41.6236H45.4918Z" fill="#545151"/>
      <path d="M4.0505 19.7204C5.22539 21.1065 5.36506 21.563 4.83102 22.0942C4.3052 22.6254 3.82867 22.476 2.58806 21.3804C1.92257 21.8784 1.3228 23.0321 0.361536 22.0361C-0.566867 21.065 0.566935 20.484 1.05168 19.8283C-0.03283 18.5253 -0.156069 18.102 0.386184 17.5708C0.920222 17.0479 1.33102 17.1724 2.60449 18.2763C2.84276 18.0439 3.08102 17.7949 3.34393 17.5708C3.83689 17.1392 4.42022 17.1641 4.83924 17.5957C5.2336 18.0107 5.25003 18.5917 4.83924 19.0565C4.62562 19.3055 4.33806 19.4881 4.06694 19.7204H4.0505Z" fill="#545151"/>
      <path d="M8.50353 2.83021C7.92841 2.09153 6.86034 1.51054 7.74766 0.572658C8.70893 -0.439922 9.31691 0.697155 9.97419 1.20345C11.2641 0.074668 11.6831 -0.0581293 12.2171 0.47306C12.7594 1.01255 12.6362 1.42754 11.412 2.88831C11.6667 3.08751 11.9789 3.2618 12.2089 3.5108C12.6608 4.00049 12.6444 4.58978 12.2171 5.02137C11.7981 5.44466 11.2066 5.46126 10.7301 5.01307C10.4918 4.78897 10.3028 4.50678 9.90846 4.03369C9.65376 4.41548 9.52231 4.71427 9.30048 4.93007C8.78287 5.45296 8.15846 5.46126 7.7148 4.99647C7.304 4.56488 7.32865 3.94239 7.79695 3.4444C7.99414 3.2369 8.2324 3.06261 8.4871 2.83021H8.50353Z" fill="#545151"/>
      <path d="M51.9002 10.2337C50.8075 8.88084 50.6843 8.48245 51.1854 7.95956C51.7195 7.40347 52.1221 7.51967 53.5927 8.78124C53.7653 8.53225 53.9214 8.24175 54.1514 8.00936C54.6526 7.51137 55.2523 7.51137 55.6878 7.95956C56.1068 8.39115 56.0986 9.02194 55.6221 9.51993C55.4084 9.74402 55.1455 9.90172 54.8908 10.1009C55.4988 10.8811 56.534 11.4206 55.6549 12.4581C55.1948 13.0059 54.743 12.8399 53.4366 11.7775C52.1878 12.8648 51.7441 13.0142 51.2101 12.4996C50.6596 11.9601 50.7993 11.487 51.9002 10.2254V10.2337Z" fill="#545151"/>
      <path d="M26.4226 33.0582C26.4226 33.7471 26.4308 34.436 26.4226 35.1166C26.4061 35.847 26.02 36.2371 25.3134 36.2454C23.9496 36.262 22.5939 36.262 21.2301 36.2454C20.5235 36.2454 20.1127 35.8304 20.1045 35.1166C20.0881 33.7388 20.0881 32.3693 20.1045 30.9916C20.1045 30.2778 20.5153 29.8628 21.2219 29.8545C22.5857 29.8379 23.9413 29.8379 25.3052 29.8545C26.02 29.8545 26.4061 30.2612 26.4226 30.9833C26.439 31.6722 26.4226 32.361 26.4226 33.0416V33.0582ZM22.2406 32.0207V34.0791H24.27V32.0207H22.2406Z" fill="#545151"/>
      <path d="M26.4226 23.4968C26.4226 24.1608 26.4308 24.8331 26.4226 25.4971C26.4061 26.2607 26.0364 26.6425 25.2723 26.6508C23.9331 26.6674 22.5939 26.6674 21.2547 26.6508C20.4989 26.6425 20.1127 26.2441 20.1045 25.4888C20.0881 24.1359 20.0881 22.783 20.1045 21.4302C20.1045 20.6832 20.5153 20.2682 21.2629 20.2599C22.6021 20.2433 23.9413 20.2433 25.2805 20.2599C26.02 20.2682 26.4143 20.6832 26.4226 21.4385C26.439 22.1273 26.4226 22.8162 26.4226 23.4968ZM24.2782 24.4845V22.4344H22.2406V24.4845H24.2782Z" fill="#545151"/>
      <path d="M31.6808 26.6508C31.0235 26.6508 30.358 26.6591 29.7007 26.6508C28.9777 26.6342 28.5587 26.2607 28.5423 25.5552C28.5176 24.1608 28.5176 22.7664 28.5423 21.3721C28.5587 20.6666 28.986 20.2765 29.7007 20.2682C31.0399 20.2516 32.3791 20.2516 33.7183 20.2682C34.466 20.2765 34.8604 20.6749 34.8686 21.4385C34.885 22.7913 34.8932 24.1442 34.8686 25.4971C34.8604 26.269 34.4742 26.6425 33.7183 26.6591C33.0364 26.6757 32.3545 26.6591 31.6808 26.6591V26.6508ZM30.6949 24.4596H32.716V22.4178H30.6949V24.4596Z" fill="#545151"/>
      <path d="M23.2511 45.8649C22.6103 45.8649 21.9695 45.8649 21.3368 45.8649C20.5152 45.8566 20.1044 45.4582 20.1044 44.6448C20.0962 43.3085 20.0962 41.9805 20.1044 40.6443C20.1044 39.8807 20.4906 39.474 21.2382 39.4657C22.6021 39.4491 23.9577 39.4491 25.3216 39.4657C26.0364 39.474 26.4143 39.8641 26.4225 40.6028C26.4389 41.9805 26.4389 43.35 26.4225 44.7278C26.4225 45.4416 26.0117 45.8317 25.2969 45.8566C24.615 45.8732 23.9331 45.8566 23.2594 45.8566L23.2511 45.8649ZM22.257 41.632V43.6986H24.2699V41.632H22.257Z" fill="#545151"/>
      <path d="M31.7301 39.4741C32.412 39.4741 33.0939 39.4575 33.7676 39.4741C34.466 39.4907 34.8521 39.8558 34.8686 40.553C34.8932 41.9474 34.8932 43.3418 34.8686 44.7361C34.8604 45.4582 34.4496 45.8483 33.7348 45.8566C32.3709 45.8732 31.0153 45.8732 29.6514 45.8566C28.9777 45.8483 28.5587 45.4416 28.5423 44.7693C28.5176 43.3501 28.5176 41.9391 28.5423 40.5198C28.5587 39.8724 28.9777 39.4907 29.6186 39.4741C30.3169 39.4575 31.0235 39.4741 31.7219 39.4741H31.7301ZM32.7242 43.6987V41.6569H30.6867V43.6987H32.7242Z" fill="#545151"/>
      <path d="M31.6644 36.2537C31.0071 36.2537 30.3416 36.262 29.6843 36.2537C28.9777 36.2371 28.5505 35.8553 28.5423 35.1415C28.5176 33.7471 28.5176 32.3527 28.5423 30.9584C28.5587 30.2778 28.9777 29.8794 29.6514 29.8711C31.0317 29.8545 32.412 29.8545 33.7923 29.8711C34.4413 29.8794 34.8439 30.2612 34.8604 30.9169C34.8932 32.3361 34.8932 33.7471 34.8604 35.1664C34.8439 35.8885 34.4413 36.2371 33.7019 36.2537C33.02 36.262 32.3381 36.2537 31.6644 36.2537ZM32.7324 32.0373H30.7031V34.0874H32.7324V32.0373Z" fill="#545151"/>
    </g>
    <defs>
      <clipPath id="clip0_146_484">
        <rect width="56" height="64" fill="white"/>
      </clipPath>
    </defs>
  </symbol>
  
<symbol id="equipo-icon" viewBox="0 0 64 54">
<g clip-path="url(#clip0_146_486)">
<path d="M36.6265 22.1973C37.0624 22.2754 37.3911 22.3179 37.7126 22.396C40.3421 23.0344 42.2356 25.2123 42.2927 27.901C42.3713 31.5899 42.3285 35.2788 42.3213 38.9677C42.3213 39.748 41.9498 40.0886 41.1638 40.0956C40.1849 40.1098 39.2131 40.0956 38.1556 40.0956C38.1413 40.3581 38.1199 40.5922 38.1199 40.8263C38.1199 42.5076 38.1199 44.1818 38.1199 45.8631C38.1199 46.4023 37.9056 46.8279 37.3482 46.9627C36.8695 47.0833 36.4551 46.9201 36.2264 46.4661C36.1335 46.2817 36.1049 46.0405 36.1049 45.8276C36.1049 40.6561 36.0978 35.4916 36.1049 30.32C36.1049 29.5893 36.4908 29.1779 37.1124 29.185C37.7198 29.185 38.1056 29.6177 38.1128 30.3413C38.1199 32.6611 38.1128 34.9808 38.1128 37.3006C38.1128 37.5418 38.1128 37.7759 38.1128 38.0597H40.2563C40.2706 37.8468 40.2921 37.634 40.2921 37.4212C40.2921 34.463 40.2921 31.5047 40.2921 28.5394C40.2921 25.8295 38.6558 24.212 35.9335 24.2049C33.3755 24.2049 30.8175 24.2049 28.2595 24.2049C25.6872 24.2049 24.1581 25.5812 23.8723 28.1351C23.7937 28.8019 23.3864 29.2134 22.8219 29.185C22.2289 29.1495 21.8502 28.6671 21.8645 27.9719C21.9288 25.2123 24.1295 22.7365 26.8661 22.3179C27.0805 22.2825 27.2877 22.247 27.5664 22.1973C26.5732 20.9559 26.0587 19.6293 26.0873 18.1041C26.1445 15.5573 27.9022 13.2588 30.3673 12.5423C32.8681 11.8116 35.5762 12.7622 37.0195 14.8692C37.4768 15.536 37.434 16.1461 36.9052 16.5008C36.3979 16.8413 35.8477 16.6711 35.3833 16.0468C33.5327 13.5709 29.9029 13.798 28.531 16.4724C27.5235 18.4446 28.3381 20.8566 30.3459 21.8213C32.3465 22.7861 34.7688 21.9278 35.7048 19.9272C35.7906 19.7499 35.8477 19.5583 35.9263 19.3739C36.1835 18.7993 36.6837 18.5723 37.2196 18.7567C37.7341 18.9341 38.0199 19.4803 37.7984 20.0549C37.5769 20.6295 37.2482 21.1545 36.9552 21.7007C36.8766 21.8497 36.7552 21.9845 36.598 22.1973H36.6265Z" fill="#545151"/>
<path d="M15.8767 25.12H17.9488C17.9631 24.8859 17.9774 24.6731 17.9774 24.4603C17.9774 21.5659 17.9774 18.6715 17.9774 15.7843C17.9774 13.2801 16.3769 11.691 13.8546 11.6768C11.2966 11.6697 8.73862 11.6697 6.18062 11.6768C3.79411 11.6768 2.31504 13.0034 2.02923 15.3586C1.93634 16.1602 1.49334 16.6001 0.871699 16.5008C0.307225 16.4156 -0.0143116 15.9474 0.0142694 15.2735C0.135739 12.4146 2.28646 10.1019 5.17314 9.73302C5.25888 9.71883 5.34462 9.69755 5.51611 9.66208C5.36606 9.42798 5.23745 9.23644 5.10883 9.0449C3.88699 7.1295 3.75123 5.13607 4.80159 3.13555C5.84479 1.17049 7.55965 0.141852 9.80326 -2.90629e-05C10.4964 -0.0425934 10.9894 0.368862 11.018 0.950575C11.0465 1.50391 10.6393 1.96503 9.95331 1.97921C8.167 2.01468 6.51645 3.35546 6.21635 5.17154C5.92339 6.92377 6.83084 8.63344 8.45281 9.34285C10.0462 10.0381 11.9468 9.57695 13.0329 8.22199C14.1404 6.84574 14.1547 4.89487 13.0758 3.49025C12.9972 3.38384 12.8972 3.29162 12.8186 3.1852C12.4113 2.64606 12.447 2.09272 12.9114 1.71673C13.333 1.37622 13.9261 1.43297 14.3405 1.88699C15.2265 2.84469 15.741 3.97265 15.8624 5.27086C16.0125 6.8883 15.5338 8.32131 14.4834 9.6408C14.712 9.69046 14.8764 9.72593 15.0407 9.75431C17.7702 10.1516 19.9567 12.5352 19.9852 15.2664C20.0281 18.8418 20.0067 22.4243 19.9995 25.9997C19.9995 26.7801 19.6423 27.1277 18.8563 27.1418C17.906 27.156 16.9485 27.1418 15.9196 27.1418C15.9053 27.4185 15.8839 27.6526 15.8839 27.8867C15.8839 29.3694 15.8839 30.8449 15.8839 32.3276C15.8839 33.0654 15.5123 33.4839 14.8978 33.491C14.2833 33.491 13.8761 33.0725 13.8761 32.356C13.8689 27.4327 13.8689 22.5094 13.8761 17.5791C13.8761 16.8767 14.3191 16.444 14.9193 16.4582C15.5052 16.4795 15.8767 16.8838 15.8767 17.5791C15.8839 19.835 15.8767 22.0838 15.8767 24.3397C15.8767 24.5809 15.8767 24.815 15.8767 25.1271V25.12Z" fill="#545151"/>
<path d="M58.5053 9.63378C59.0912 9.78275 59.6342 9.86788 60.1487 10.0523C62.3566 10.8327 63.9071 12.9751 63.9786 15.3161C64 15.983 63.657 16.4441 63.0854 16.5079C62.4995 16.5718 62.035 16.1674 61.9779 15.458C61.8278 13.6348 60.9275 12.3934 59.1555 11.8471C58.7411 11.7194 58.2766 11.6911 57.8408 11.6911C55.2828 11.6769 52.7248 11.6769 50.1668 11.6911C47.6016 11.6981 46.0154 13.2872 46.0154 15.834C46.0154 18.7071 46.0154 21.5731 46.0154 24.4462V25.113H48.1232C48.1232 24.8364 48.1232 24.6022 48.1232 24.3681C48.1232 22.1619 48.1232 19.9485 48.1232 17.7423C48.1232 16.9052 48.4805 16.4583 49.1307 16.4654C49.7667 16.4725 50.1382 16.9336 50.1382 17.7636C50.1382 22.4244 50.1382 27.0852 50.1382 31.746C50.1382 31.8808 50.1382 32.0155 50.1168 32.1432C50.0167 32.7037 49.5737 33.0726 49.0378 33.0087C48.4734 32.9449 48.1375 32.6185 48.1304 32.051C48.109 30.6819 48.1232 29.3127 48.1161 27.9435C48.1161 27.7094 48.1161 27.4682 48.1161 27.1561C47.1372 27.1561 46.2298 27.1561 45.3223 27.1561C44.3148 27.1561 44.0004 26.844 43.9933 25.8579C43.9933 22.4315 43.979 19.0121 43.9933 15.5857C44.0076 12.514 46.094 10.1729 49.1736 9.74019C49.2593 9.726 49.3379 9.69762 49.4808 9.66215C49.3379 9.44224 49.2236 9.26489 49.1093 9.09463C47.6016 6.86 47.816 3.91596 49.6237 1.92253C50.274 1.20603 50.8956 1.07124 51.3886 1.53945C51.8745 2.00057 51.803 2.51843 51.1314 3.25622C50.0596 4.43383 49.8167 6.10093 50.5098 7.51265C51.2243 8.95984 52.6533 9.76147 54.3325 9.64797C55.8473 9.54865 57.1834 8.47744 57.6622 6.99479C58.2909 5.02973 57.2263 2.90861 55.2685 2.22758C55.0827 2.16373 54.8827 2.12826 54.6897 2.06441C54.0967 1.86578 53.8109 1.3692 53.9609 0.837141C54.1181 0.290898 54.6111 -0.0141468 55.2113 0.134828C57.4192 0.666883 58.9126 2.00766 59.5985 4.15716C60.1558 5.9023 59.8629 7.56231 58.8554 9.08753C58.7411 9.26489 58.6268 9.44224 58.4981 9.64087L58.5053 9.63378Z" fill="#545151"/>
<path d="M33.1111 51.9782H36.1121C36.1121 51.3185 36.1121 50.6658 36.1121 50.0132C36.1121 49.1903 36.498 48.7221 37.1267 48.7363C37.7484 48.7505 38.1199 49.2329 38.1271 50.0487C38.1271 50.9567 38.1342 51.8577 38.1271 52.7657C38.1199 53.6454 37.7484 54.0001 36.8552 54.0001C33.697 54.0001 30.5388 54.0001 27.3806 54.0001C26.4517 54.0001 26.1159 53.6595 26.1159 52.7018C26.1159 48.7717 26.1159 44.8416 26.1159 40.9115C26.1159 40.6703 26.1159 40.4362 26.1159 40.1028C25.1227 40.1028 24.1724 40.1028 23.2221 40.1028C22.2289 40.1028 21.8788 39.7694 21.8788 38.8117C21.8788 36.648 21.8788 34.4843 21.8788 32.3206C21.8788 31.5828 22.1717 31.1643 22.7148 31.0791C23.3864 30.9727 23.8795 31.4126 23.8866 32.1716C23.9009 33.8955 23.8866 35.6193 23.8866 37.3361C23.8866 37.5702 23.8866 37.8114 23.8866 38.0739H26.1088V37.3716C26.1088 35.1228 26.1088 32.8668 26.1088 30.618C26.1088 29.6461 26.4232 29.2063 27.102 29.1992C27.7808 29.1992 28.1237 29.6532 28.1237 30.5967C28.1237 37.4638 28.1237 44.3309 28.1237 51.1979V51.9641H31.089C31.089 51.7016 31.089 51.4462 31.089 51.1908C31.089 47.9914 31.089 44.7849 31.089 41.5855C31.089 41.3017 31.0461 40.9328 31.2033 40.7554C31.4463 40.4717 31.825 40.1808 32.1822 40.1312C32.6538 40.0744 33.0039 40.4291 33.0825 40.9257C33.1183 41.1669 33.1111 41.4081 33.1111 41.6493C33.1111 44.8274 33.1111 48.0056 33.1111 51.1837V51.9782Z" fill="#545151"/>
<path d="M4.11566 27.149C3.14391 27.149 2.26504 27.149 1.37903 27.149C0.328681 27.149 0.00714525 26.844 0.00714525 25.8224C0 23.6587 0 21.4951 0 19.3314C0 18.8419 0.0928882 18.395 0.58591 18.1608C1.29329 17.8203 2.00067 18.3098 2.01496 19.1753C2.0364 20.8992 2.02211 22.6159 2.02211 24.3398C2.02211 24.581 2.02211 24.8151 2.02211 25.0988H4.11566C4.11566 24.8435 4.11566 24.6093 4.11566 24.3752C4.11566 22.1903 4.11566 20.0053 4.11566 17.8203C4.11566 17.5579 4.1371 17.2812 4.22999 17.0471C4.40862 16.6072 4.80875 16.3448 5.23747 16.5079C5.57329 16.6356 5.86625 16.9832 6.08061 17.2954C6.19493 17.4656 6.11633 17.7707 6.11633 18.0119C6.11633 24.6164 6.11633 31.2139 6.11633 37.8185V38.6485H8.99587C8.99587 38.3718 8.99587 38.1377 8.99587 37.8965C8.99587 34.7184 8.99587 31.5402 8.99587 28.3621C8.99587 27.7733 9.13877 27.298 9.76756 27.1419C10.4606 26.9646 11.0037 27.4683 11.0108 28.2983C11.0251 29.71 11.0108 31.1217 11.0108 32.5405C11.0108 34.3282 11.0108 36.1159 11.0108 37.9036C11.0108 38.1377 11.0108 38.3789 11.0108 38.6556H13.8475C13.8475 37.9958 13.8403 37.3645 13.8475 36.726C13.8618 35.9669 14.2548 35.4987 14.8621 35.4987C15.4695 35.4987 15.8482 35.9598 15.8553 36.726C15.8625 37.6766 15.8696 38.6272 15.8553 39.5707C15.841 40.3227 15.5052 40.6845 14.7549 40.6916C11.5753 40.7058 8.39567 40.7058 5.21603 40.6916C4.40862 40.6916 4.10137 40.2943 4.09423 39.3792C4.09423 35.6051 4.09423 31.8311 4.09423 28.05C4.09423 27.7875 4.09423 27.525 4.09423 27.149H4.11566Z" fill="#545151"/>
<path d="M50.1382 38.6556H52.9749V37.9604C52.9749 34.8248 52.9749 31.6892 52.9749 28.5537C52.9749 28.2912 52.9749 28.0145 53.0606 27.7733C53.2107 27.2909 53.5822 27.0639 54.0895 27.1136C54.5968 27.1632 54.8969 27.4541 54.9684 27.9507C55.0041 28.1706 54.9898 28.3905 54.9898 28.6104C54.9898 31.7034 54.9898 34.7893 54.9898 37.8823C54.9898 38.1164 54.9898 38.3576 54.9898 38.6414H57.8694V37.8682C57.8694 31.2707 57.8694 24.6661 57.8694 18.0686C57.8694 17.8274 57.8622 17.5791 57.8837 17.3379C57.9408 16.8343 58.2338 16.5292 58.7411 16.4725C59.277 16.4086 59.6557 16.6498 59.8129 17.1606C59.8843 17.3876 59.8843 17.6359 59.8843 17.8771C59.8843 20.2607 59.8843 22.6443 59.8843 25.0847H61.9422C61.9493 24.8647 61.9707 24.6377 61.9707 24.4036C61.9707 23.0132 61.9707 21.6228 61.9707 20.2323C61.9707 19.5016 62.3637 19.0618 62.9496 19.0476C63.557 19.0334 63.9785 19.5016 63.9857 20.2536C64 22.1548 64 24.0489 63.9857 25.9501C63.9857 26.8085 63.6213 27.1348 62.7496 27.1419C61.8207 27.149 60.8918 27.1419 59.8772 27.1419V27.979C59.8772 31.7318 59.8772 35.4846 59.8772 39.2373C59.8772 40.3936 59.5771 40.6916 58.4267 40.6916C55.4686 40.6916 52.5104 40.6916 49.5523 40.6916C48.3805 40.6916 48.1161 40.422 48.1161 39.2373C48.1161 38.2016 48.1089 37.1587 48.1161 36.123C48.1232 35.4278 48.4876 35.0234 49.0736 35.0022C49.6738 34.9809 50.1025 35.4207 50.1239 36.1159C50.1453 36.9459 50.1239 37.783 50.1239 38.6485L50.1382 38.6556Z" fill="#545151"/>
</g>
<defs>
<clipPath id="clip0_146_486">
<rect width="64" height="54" fill="white"/>
</clipPath>
</defs>
</symbol>

<symbol id="familia-icon" viewBox="0 0 68 68" >
<g clip-path="url(#clip0_146_487)">
<path d="M41.2978 50.2865C40.5108 51.2247 39.7715 52.1151 39.0163 52.9897C38.8732 53.1566 38.6744 53.2679 38.4995 53.4031C37.9431 53.8006 37.7072 54.3598 37.792 55.0806C39.1514 55.4384 40.5267 55.7723 41.886 56.1698C43.4918 56.6469 44.7717 57.5771 45.3282 59.2069C45.6223 60.0735 45.7018 61.0196 45.829 61.9339C46.0039 63.2457 46.1311 64.5655 46.29 65.9966C47.077 65.9966 47.864 65.9966 48.6511 65.9966C49.0724 65.9966 49.4937 65.9648 49.9071 66.0204C50.4556 66.0999 50.7815 66.4418 50.7736 67.0142C50.7656 67.5548 50.4397 67.8649 49.923 67.9683C49.7322 68.008 49.5255 67.9921 49.3268 67.9921C39.1673 67.9921 29.0078 67.9921 18.8484 67.9921C18.7132 67.9921 18.586 67.9921 18.4509 67.9921C17.8308 67.9444 17.4095 67.5389 17.4095 66.9983C17.4095 66.4577 17.8229 66.0284 18.4509 66.0125C19.3333 65.9886 20.2236 66.0045 21.106 66.0045C21.3445 66.0045 21.583 66.0045 21.8692 66.0045C22.06 64.327 22.2667 62.713 22.4336 61.0911C22.7357 58.2369 23.9917 56.7661 26.7899 56.0347C27.9824 55.7246 29.1827 55.4225 30.3593 55.1283C30.558 54.3253 30.3116 53.8563 29.6597 53.3315C28.7694 52.616 28.0936 51.6222 27.3384 50.7397C27.2113 50.5966 27.1477 50.4058 27.0523 50.2309L26.8694 50.2468C26.8694 50.8669 26.8853 51.495 26.8694 52.1151C26.8535 52.5524 26.8694 53.0135 26.7104 53.411C26.4322 54.1266 25.7008 54.4446 24.7628 54.3174C24.1984 54.2379 23.626 54.1186 23.0775 53.9596C21.8771 53.6098 21.2173 52.5603 21.6466 51.3996C22.1474 50.04 22.8311 48.7521 23.4829 47.4482C23.6578 47.0984 23.785 46.844 23.6101 46.4306C23.165 45.3731 23.3716 44.3555 24.0076 43.4094C24.1268 43.2345 24.2858 43.0357 24.3017 42.8449C24.3892 41.8352 24.4448 40.8255 24.4925 39.9828C23.952 40.4041 23.3557 41.064 22.6164 41.39C21.7738 41.7637 21.0106 41.2389 20.2872 40.4041C20.2872 41.6762 20.2872 42.7257 20.2872 43.7751C20.2872 44.2839 20.3111 44.7928 20.2554 45.3016C20.1839 45.9138 19.7864 46.2556 19.2379 46.2159C18.6337 46.1682 18.3158 45.8025 18.3078 45.2141C18.2919 43.799 18.2999 42.3838 18.2919 40.9607C18.2919 40.8573 18.276 40.746 18.2681 40.5472C18.0773 40.6903 17.9421 40.7778 17.8229 40.8812C16.7974 41.7716 15.6209 41.6842 14.7544 40.6108C13.8561 39.4898 12.9896 38.337 12.0834 37.224C11.9562 37.065 11.6779 36.8662 11.5348 36.9059C9.95289 37.3671 8.3312 37.7566 6.81284 38.4006C5.35013 39.0128 4.58698 40.3008 4.39619 41.8909C4.06232 44.6815 3.73639 47.4721 3.41046 50.2627C3.40251 50.3501 3.40251 50.4376 3.39456 50.6045C5.06395 50.7794 6.7254 50.9543 8.43454 51.1372C8.50608 49.9208 8.56173 48.7759 8.63328 47.6311C8.64918 47.3926 8.66508 47.1381 8.74457 46.9155C8.91946 46.4385 9.32488 46.1602 9.78595 46.3351C10.1198 46.4624 10.3981 46.8281 10.6048 47.1461C10.716 47.321 10.6365 47.6231 10.6207 47.8616C10.3345 53.2997 10.0324 58.7378 9.74621 64.168C9.71441 64.7404 9.74621 65.3128 9.74621 65.9966C10.6207 65.9966 11.5428 65.9966 12.4649 65.9966C12.8624 65.9966 13.2599 65.9807 13.6574 65.9966C14.3251 66.0284 14.7544 66.4418 14.7385 67.0142C14.7226 67.5628 14.3092 67.9603 13.6733 67.9842C13.1247 68.008 12.5683 67.9842 12.0118 67.9842C9.70646 67.9842 7.40905 67.9444 5.1037 67.9921C1.64567 68.0716 -0.349656 65.6308 0.0398696 62.2201C0.747375 55.979 1.41513 49.73 2.15444 43.4968C2.30548 42.2168 2.50421 40.8891 2.98118 39.6965C3.87153 37.4863 5.73966 36.3097 7.97347 35.6975C9.92904 35.1648 11.9482 34.8309 13.7448 33.8132C14.1502 33.5827 14.3569 33.3601 14.2933 32.8989C14.2615 32.6843 14.2615 32.4537 14.2933 32.239C14.3808 31.7143 14.1264 31.4599 13.6971 31.2055C10.3424 29.194 8.54583 26.2047 8.2517 22.3169C8.2199 21.8637 8.11656 21.6252 7.63959 21.4742C5.58067 20.8222 4.34055 18.4689 5.53297 16.4893C5.67606 16.2507 5.68401 15.9009 5.68401 15.5988C5.69991 13.6748 5.68401 11.7667 6.22458 9.87449C7.98937 3.60161 14.1423 -0.620068 20.6211 0.0716188C26.7422 0.723554 31.5358 5.09629 32.6249 11.1704C32.8872 12.6333 32.7839 14.1677 32.8633 15.6704C32.8792 15.9725 32.9269 16.2905 33.0541 16.5608C33.9922 18.5087 33.1972 20.6394 31.1383 21.3708C30.4546 21.6173 30.3434 21.975 30.2718 22.6031C29.8823 26.2683 28.2606 29.2179 25.0172 31.118C24.4607 31.444 24.3176 31.7938 24.2779 32.406C24.2222 33.2885 24.4528 33.845 25.3352 34.0597C25.3988 34.0756 25.4624 34.1074 25.518 34.1392C26.6468 34.8547 27.5928 34.974 28.8171 34.0199C30.6295 32.6127 32.8554 32.1913 35.1687 32.4855C35.28 32.5014 35.3833 32.4855 35.3833 32.4855C35.2561 30.4661 35.1131 28.4467 34.9938 26.4352C34.7871 22.945 34.5327 19.4548 34.3976 15.9645C34.2943 13.2455 34.6043 10.5741 35.7888 8.06975C36.6473 6.265 37.9192 4.88958 39.851 4.19789C40.0894 4.11044 40.3279 3.94348 40.479 3.75267C42.1245 1.6458 44.3424 0.540694 46.926 0.182925C52.8484 -0.64392 57.5147 1.45499 60.8217 6.43991C62.2447 8.57858 62.9681 10.9876 63.0714 13.5635C63.1032 14.3983 62.7614 14.8674 62.1175 14.8753C61.4974 14.8833 61.1397 14.4619 61.0841 13.6748C60.6468 8.19696 57.9679 4.26149 52.7212 2.53625C49.136 1.35959 45.4951 1.5822 42.5697 4.4364C41.7747 5.20759 41.0434 5.90723 39.9861 6.36041C38.3246 7.06799 37.5694 8.62628 37.0607 10.272C36.4247 12.3232 36.2896 14.446 36.4088 16.5767C36.6632 21.2834 36.9494 25.99 37.2276 30.6967C37.2912 31.7541 37.4025 31.8336 38.4836 31.8336C40.2007 31.8336 41.9178 31.8336 43.7065 31.6746C43.5554 31.5553 43.4203 31.4122 43.2613 31.3088C39.5489 29.0589 37.6728 25.7594 37.6489 21.4185C37.641 19.7171 37.633 18.0078 37.633 16.3064C37.633 14.8276 38.1498 14.1677 39.5727 13.802C40.8923 13.4601 42.0212 12.8003 42.9831 11.8462C44.1437 10.7013 45.0261 10.757 46.0993 11.9655C49.1201 15.3762 52.9915 17.0299 57.4829 17.3558C59.1364 17.4751 59.7644 18.135 59.7803 19.7807C59.8042 21.8637 59.8042 23.9388 58.9456 25.9105C57.952 28.1923 56.3939 29.9732 54.2554 31.2532C54.0647 31.3645 53.8898 31.4997 53.5638 31.7223C53.85 31.7859 53.9534 31.8256 54.0488 31.8256C55.8612 31.8256 57.6817 31.8256 59.4942 31.8256C60.0824 31.8256 60.2812 31.5076 60.313 30.9431C60.5435 26.8805 60.7899 22.8098 61.0682 18.7551C61.092 18.3894 61.3305 17.9442 61.6087 17.7216C61.8075 17.5626 62.3719 17.5944 62.5627 17.7693C62.825 18.0157 63.0237 18.4848 63.0158 18.8505C62.984 20.3134 62.8727 21.7683 62.7853 23.2233C62.6263 25.831 62.4593 28.4387 62.3083 31.0385C62.197 32.8512 61.2033 33.8132 59.367 33.8212C57.6658 33.8212 55.9566 33.8212 54.2554 33.8212C54.0885 33.8212 53.9216 33.853 53.7149 34.0199C53.8977 34.0915 54.0726 34.1869 54.2554 34.2346C56.052 34.6878 57.8566 35.133 59.6611 35.5782C62.1255 36.1904 64.1605 37.4227 65.0986 39.8794C65.5437 41.0322 65.7107 42.3202 65.8538 43.5605C66.5772 49.7538 67.2688 55.9552 67.9365 62.1565C68.1353 63.993 67.8173 65.6944 66.2989 66.9586C65.4483 67.6661 64.4308 67.9603 63.3417 67.9603C60.4402 67.9762 57.5465 67.9683 54.645 67.9603C53.9057 67.9603 53.4764 67.5787 53.4684 66.9824C53.4605 66.3623 53.9057 65.9807 54.6847 65.9727C55.893 65.9648 57.1093 65.9727 58.3812 65.9727C58.2938 64.2157 58.2143 62.5143 58.1269 60.8208C57.8884 56.4004 57.6499 51.9799 57.4114 47.5595C57.3717 46.7804 57.7214 46.3033 58.3256 46.2556C58.9536 46.2079 59.3431 46.6134 59.3988 47.4005C59.4783 48.609 59.5419 49.8174 59.6214 51.0895C61.3066 50.9146 62.9283 50.7397 64.6295 50.5568C64.5103 49.4517 64.399 48.3864 64.2798 47.313C64.089 45.6435 63.8584 43.9739 63.6994 42.3043C63.4451 39.625 61.7916 38.2575 59.3829 37.5499C59.1921 37.4943 58.9933 37.4625 58.8026 37.4227C58.5879 38.504 58.4448 39.5932 58.1507 40.6426C57.4988 42.9801 55.9169 44.1885 53.8262 43.8785C52.9517 43.7513 52.0773 43.4014 51.2823 42.988C50.3681 42.511 49.5493 41.8591 48.7464 41.3343C47.3553 42.1691 45.9641 43.0119 44.5014 43.8944C44.5014 43.8944 44.5571 44.0454 44.573 44.1885C44.6286 44.753 44.875 45.4049 44.6842 45.8661C44.3186 46.7486 44.6922 47.3051 45.0897 48.0206C45.67 49.078 46.147 50.207 46.5365 51.3519C46.926 52.4888 46.3218 53.5541 45.1533 53.896C44.5014 54.0948 43.8178 54.2299 43.142 54.2935C42.0927 54.3889 41.3137 53.6575 41.2819 52.5921C41.258 51.805 41.2819 51.0179 41.2819 50.2547L41.2978 50.2865ZM28.5388 19.6456C28.4832 19.6456 28.4196 19.6297 28.3639 19.6217C28.3639 18.6279 28.3798 17.6341 28.348 16.6403C28.348 16.4097 28.2208 16.1156 28.0459 15.9804C26.8138 15.0184 26.2335 13.7384 26.0586 12.2199C25.9711 11.4328 25.8916 11.3771 25.0967 11.4805C21.2014 11.9575 17.2982 12.1006 13.395 11.4964C12.6398 11.3771 12.5524 11.4566 12.4888 12.2119C12.3536 13.7146 11.7495 14.9628 10.573 15.9327C10.3901 16.0838 10.2391 16.3938 10.2311 16.6324C10.2073 18.3099 10.2152 19.9954 10.2311 21.6729C10.247 24.0501 11.0022 26.149 12.6796 27.8584C15.0724 30.2912 17.966 31.3009 21.3207 30.5058C24.5641 29.7426 26.8615 27.7232 27.8472 24.5271C28.3242 22.9768 28.3242 21.2754 28.5388 19.6376V19.6456ZM44.4935 13.1819C43.1977 14.5016 41.6952 15.3444 39.9702 15.7896C39.8351 15.8214 39.6681 16.052 39.6681 16.1951C39.684 18.4689 39.4932 20.7825 39.7953 23.0245C40.5267 28.4387 45.9244 31.8733 51.2028 30.4104C55.8215 29.1225 58.5005 24.7338 57.7055 19.3832C52.5225 19.089 48.0628 17.1968 44.5014 13.1819H44.4935ZM30.7965 14.7004C31.2734 10.2084 28.8568 5.61307 24.9138 3.43465C20.8199 1.17673 15.7322 1.57425 12.1311 4.46025C8.83996 7.09185 7.53625 10.5662 7.73498 14.8912C8.44249 14.597 9.07845 14.4539 9.57132 14.1041C10.2788 13.5953 10.4458 12.7684 10.5253 11.9257C10.7001 10.1289 11.8369 9.27821 13.6017 9.47697C15.3586 9.67573 17.1233 9.89835 18.8881 9.8904C20.9629 9.88244 23.0298 9.63598 25.1046 9.49287C26.9171 9.36567 27.8552 10.1369 28.0459 11.9337C28.2367 13.7623 28.9283 14.4619 30.8044 14.7004H30.7965ZM26.5276 65.9648C26.5514 65.8773 26.5594 65.8534 26.5594 65.8375C26.5991 65.3287 26.6389 64.8199 26.6707 64.319C26.7263 63.4922 27.1318 63.039 27.7439 63.0946C28.3719 63.1503 28.6978 63.6432 28.6581 64.4701C28.6342 64.963 28.6024 65.4639 28.5706 65.9648H39.525C39.5489 65.8773 39.5727 65.8137 39.5727 65.7501C39.5568 65.3287 39.5489 64.9073 39.525 64.4939C39.4773 63.6273 39.8192 63.1185 40.471 63.0867C41.0672 63.0628 41.4568 63.516 41.5203 64.3588C41.5601 64.8835 41.576 65.4082 41.6078 65.9568H44.2947C44.0562 64.0646 43.8496 62.2281 43.5872 60.3915C43.4362 59.3341 42.7525 58.6265 41.7827 58.2687C40.7969 57.911 39.7635 57.6804 38.746 57.3942C37.8556 60.1689 36.4247 61.4648 34.2307 61.5284C33.229 61.5523 32.3069 61.2979 31.4722 60.7334C30.3116 59.9463 29.6756 58.8253 29.453 57.3703C28.3957 57.6725 27.3782 57.8951 26.4084 58.2449C25.1523 58.6901 24.5641 59.676 24.4369 60.9798C24.3335 62.077 24.1825 63.1741 24.0553 64.2713C23.9917 64.8278 23.944 65.3923 23.8884 65.9727H26.5037L26.5276 65.9648ZM28.4514 43.5843C28.4514 45.0154 28.348 46.4147 28.4752 47.7901C28.7455 50.7794 31.4642 52.9897 34.4612 52.767C37.4264 52.5524 39.6204 50.3024 39.7317 47.3051C39.7794 46.0569 39.7317 44.8087 39.7317 43.5207C37.5218 43.6956 35.5741 43.3458 34.1035 41.6603C32.8475 42.7469 30.9608 43.3882 28.4434 43.5843H28.4514ZM41.7747 41.8114C41.9258 38.6709 39.0799 34.6003 34.2704 34.4016C30.1685 34.2267 26.2414 37.8997 26.3686 41.8193C26.4958 41.8193 26.6548 41.8511 26.7343 41.7955C27.3702 41.3105 28.0618 41.4695 28.7694 41.541C30.2798 41.6921 31.6709 41.4774 32.6885 40.1418C33.5947 38.9572 34.5804 38.9651 35.4946 40.1577C36.226 41.1117 37.1958 41.5251 38.3564 41.5728C39.4773 41.6205 40.63 41.1992 41.7032 41.8273C41.7191 41.8352 41.7429 41.8273 41.7668 41.8193L41.7747 41.8114ZM60.3925 65.9886C61.3225 65.9886 62.1811 65.9886 63.0476 65.9886C65.0906 65.9886 66.1717 64.8358 65.973 62.7925C65.7266 60.2643 65.4404 57.7361 65.1622 55.2078C65.0668 54.3412 64.9555 53.4746 64.8442 52.5762C63.0953 52.7591 61.4338 52.942 59.7088 53.1248C59.9393 57.4419 60.1619 61.6874 60.3845 65.9886H60.3925ZM3.15607 52.5842C3.11633 52.8783 3.08453 53.1169 3.06068 53.3554C2.90169 54.7388 2.7427 56.1221 2.59166 57.5055C2.39292 59.3102 2.17828 61.107 2.02724 62.9118C1.88415 64.5416 2.7109 65.758 4.15771 65.9171C5.28654 66.0443 6.43922 65.9409 7.63164 65.9409C7.84628 61.6636 8.06091 57.4101 8.27555 53.1248C6.52666 52.942 4.86521 52.767 3.16402 52.5842H3.15607ZM43.3487 36.2779C46.139 39.7601 51.5129 39.5693 54.0329 36.2858C53.23 35.9916 52.1568 36.0393 51.9103 34.9819C51.7116 34.1471 51.7116 33.2646 51.6162 32.3424C49.6447 32.8989 47.7051 32.8194 45.7733 32.3424C45.6938 33.2487 45.7097 34.1233 45.5189 34.9501C45.2725 36.0155 44.2152 35.9916 43.3487 36.2779ZM32.6487 54.7387C32.3625 55.4304 32.2035 56.1301 31.8061 56.6469C31.5596 56.9728 31.4642 57.2034 31.5596 57.5532C31.8458 58.6663 32.8236 59.4772 33.9445 59.517C35.1687 59.5567 36.2101 58.8412 36.5758 57.7043C36.7109 57.2829 36.7348 56.9728 36.2975 56.631C35.9954 56.4004 35.8921 55.8836 35.7649 55.4781C35.6854 55.2396 35.7252 54.9693 35.7172 54.7387H32.6567H32.6487ZM22.2269 32.3424C20.2634 32.8751 18.3237 32.8512 16.233 32.3265C16.3204 32.9546 16.2091 33.6145 16.4874 33.9325C17.3221 34.8865 18.3158 35.7134 19.2777 36.6277C20.0567 35.8962 20.7483 35.1489 21.5433 34.5288C22.2746 33.9563 22.4495 33.2964 22.2269 32.3503V32.3424ZM51.1154 40.6824C51.9342 41.072 52.7371 41.541 53.5877 41.8352C54.804 42.2486 55.6466 41.8829 56.0441 40.6506C56.4336 39.4739 56.5926 38.2257 56.8549 37.0093C56.7834 36.9536 56.7039 36.898 56.6323 36.8503C56.4416 36.9218 56.1792 36.9457 56.0679 37.0809C54.796 38.7504 53.1664 39.8953 51.1074 40.6903L51.1154 40.6824ZM22.1633 39.466C23.0616 38.3211 23.9361 37.2001 24.8423 36.0473C24.4528 35.8565 24.1268 35.6736 23.785 35.5464C23.6499 35.4987 23.4193 35.5067 23.3239 35.5862C22.4495 36.3812 21.591 37.2001 20.7245 38.019C21.2173 38.5199 21.6705 38.9651 22.1633 39.466ZM13.7289 36.0632C14.6351 37.224 15.5096 38.337 16.3602 39.4262C16.8849 38.9333 17.3459 38.496 17.8388 38.027C16.9643 37.2001 16.1217 36.3971 15.2552 35.61C15.1598 35.5226 14.9293 35.5067 14.8021 35.5544C14.4603 35.6816 14.1343 35.8644 13.7289 36.0632ZM43.468 39.2911C43.6111 40.1338 43.7542 40.9527 43.9211 41.9068C44.7081 41.4774 45.4713 41.064 46.2662 40.6347C45.2487 40.1497 44.3663 39.7283 43.468 39.299V39.2911ZM44.7717 51.9322C44.1596 50.6681 43.6031 49.5153 43.0467 48.3625C43.0228 48.3864 42.999 48.4102 42.9751 48.4341C43.1261 49.7061 43.2772 50.9782 43.4282 52.2741C43.7701 52.1867 44.1755 52.0833 44.7717 51.9322ZM25.2 48.4023C25.2 48.4023 25.1523 48.3546 25.1285 48.3307C24.5641 49.5233 23.9917 50.7158 23.3875 51.9879C23.952 52.1072 24.3733 52.1946 24.7231 52.2741C24.89 50.9464 25.049 49.6743 25.208 48.4023H25.2ZM39.4614 33.8848C40.0338 34.6878 40.5505 34.8945 41.4329 34.6798C42.053 34.5288 42.681 34.3857 43.301 34.2267C43.4441 34.1869 43.5634 34.0915 43.6985 34.0199C43.6826 33.9802 43.6667 33.9325 43.6508 33.8927H39.4614V33.8848ZM8.18811 16.8391C7.47265 17.0855 7.05928 17.5944 7.07517 18.1747C7.08312 18.771 7.52035 19.2798 8.18811 19.4468V16.8391ZM30.4229 16.8391V19.5422C31.0827 19.2003 31.5278 18.7869 31.4722 18.0793C31.4245 17.4672 31.0747 17.0378 30.4229 16.8391ZM41.8304 44.0375V46.5896C42.4425 46.2954 42.7923 45.9058 42.7843 45.2857C42.7684 44.6974 42.4266 44.3237 41.8304 44.0375ZM26.3925 44.0136C25.7326 44.3237 25.3511 44.7371 25.3908 45.3811C25.4306 45.9774 25.7883 46.359 26.3925 46.5737V44.0057V44.0136Z" fill="#545151"/>
</g>
<defs>
<clipPath id="clip0_146_487">
<rect width="68" height="68" fill="white"/>
</clipPath>
</defs>
</symbol>

  <symbol id="flecha-icon" viewBox="0 0 20 21">
    <path fill-rule="evenodd" clip-rule="evenodd" d="M0 10.5C0 5.11704 4.36704 0.75 9.75 0.75C15.133 0.75 19.5 5.11704 19.5 10.5C19.5 15.883 15.133 20.25 9.75 20.25C4.36704 20.25 0 15.883 0 10.5ZM9.75 2.25C5.19546 2.25 1.5 5.94546 1.5 10.5C1.5 15.0545 5.19546 18.75 9.75 18.75C14.3045 18.75 18 15.0545 18 10.5C18 5.94546 14.3045 2.25 9.75 2.25Z" />
    <path fill-rule="evenodd" clip-rule="evenodd" d="M7.34467 5.46967C7.63756 5.17678 8.11244 5.17678 8.40533 5.46967L12.9053 9.96967C13.1982 10.2626 13.1982 10.7374 12.9053 11.0303L8.40533 15.5303C8.11244 15.8232 7.63756 15.8232 7.34467 15.5303C7.05178 15.2374 7.05178 14.7626 7.34467 14.4697L11.3143 10.5L7.34467 6.53033C7.05178 6.23744 7.05178 5.76256 7.34467 5.46967Z" />
  </symbol>
  
  <symbol id="facebook-icon" viewBox="0 0 640 640">
    <path fill="#ffffff" d="M240 363.3L240 576L356 576L356 363.3L442.5 363.3L460.5 265.5L356 265.5L356 230.9C356 179.2 376.3 159.4 428.7 159.4C445 159.4 458.1 159.8 465.7 160.6L465.7 71.9C451.4 68 416.4 64 396.2 64C289.3 64 240 114.5 240 223.4L240 265.5L174 265.5L174 363.3L240 363.3z"/>
  </symbol>
  
  <symbol id="instagram-icon" viewBox="0 0 640 640">
    <path fill="#ffffff" d="M320.3 205C256.8 204.8 205.2 256.2 205 319.7C204.8 383.2 256.2 434.8 319.7 435C383.2 435.2 434.8 383.8 435 320.3C435.2 256.8 383.8 205.2 320.3 205zM319.7 245.4C360.9 245.2 394.4 278.5 394.6 319.7C394.8 360.9 361.5 394.4 320.3 394.6C279.1 394.8 245.6 361.5 245.4 320.3C245.2 279.1 278.5 245.6 319.7 245.4zM413.1 200.3C413.1 185.5 425.1 173.5 439.9 173.5C454.7 173.5 466.7 185.5 466.7 200.3C466.7 215.1 454.7 227.1 439.9 227.1C425.1 227.1 413.1 215.1 413.1 200.3zM542.8 227.5C541.1 191.6 532.9 159.8 506.6 133.6C480.4 107.4 448.6 99.2 412.7 97.4C375.7 95.3 264.8 95.3 227.8 97.4C192 99.1 160.2 107.3 133.9 133.5C107.6 159.7 99.5 191.5 97.7 227.4C95.6 264.4 95.6 375.3 97.7 412.3C99.4 448.2 107.6 480 133.9 506.2C160.2 532.4 191.9 540.6 227.8 542.4C264.8 544.5 375.7 544.5 412.7 542.4C448.6 540.7 480.4 532.5 506.6 506.2C532.8 480 541 448.2 542.8 412.3C544.9 375.3 544.9 264.5 542.8 227.5zM495 452C487.2 471.6 472.1 486.7 452.4 494.6C422.9 506.3 352.9 503.6 320.3 503.6C287.7 503.6 217.6 506.2 188.2 494.6C168.6 486.8 153.5 471.7 145.6 452C133.9 422.5 136.6 352.5 136.6 319.9C136.6 287.3 134 217.2 145.6 187.8C153.4 168.2 168.5 153.1 188.2 145.2C217.7 133.5 287.7 136.2 320.3 136.2C352.9 136.2 423 133.6 452.4 145.2C472 153 487.1 168.1 495 187.8C506.7 217.3 504 287.3 504 319.9C504 352.5 506.7 422.6 495 452z"/>
  </symbol>
  
  <symbol id="whatsapp-icon" viewBox="0 0 640 640">
    <path fill="#ffffff" d="M476.9 161.1C435 119.1 379.2 96 319.9 96C197.5 96 97.9 195.6 97.9 318C97.9 357.1 108.1 395.3 127.5 429L96 544L213.7 513.1C246.1 530.8 282.6 540.1 319.8 540.1L319.9 540.1C442.2 540.1 544 440.5 544 318.1C544 258.8 518.8 203.1 476.9 161.1zM319.9 502.7C286.7 502.7 254.2 493.8 225.9 477L219.2 473L149.4 491.3L168 423.2L163.6 416.2C145.1 386.8 135.4 352.9 135.4 318C135.4 216.3 218.2 133.5 320 133.5C369.3 133.5 415.6 152.7 450.4 187.6C485.2 222.5 506.6 268.8 506.5 318.1C506.5 419.9 421.6 502.7 319.9 502.7zM421.1 364.5C415.6 361.7 388.3 348.3 383.2 346.5C378.1 344.6 374.4 343.7 370.7 349.3C367 354.9 356.4 367.3 353.1 371.1C349.9 374.8 346.6 375.3 341.1 372.5C308.5 356.2 287.1 343.4 265.6 306.5C259.9 296.7 271.3 297.4 281.9 276.2C283.7 272.5 282.8 269.3 281.4 266.5C280 263.7 268.9 236.4 264.3 225.3C259.8 214.5 255.2 216 251.8 215.8C248.6 215.6 244.9 215.6 241.2 215.6C237.5 215.6 231.5 217 226.4 222.5C221.3 228.1 207 241.5 207 268.8C207 296.1 226.9 322.5 229.6 326.2C232.4 329.9 268.7 385.9 324.4 410C359.6 425.2 373.4 426.5 391 423.9C401.7 422.3 423.8 410.5 428.4 397.5C433 384.5 433 373.4 431.6 371.1C430.3 368.6 426.6 367.2 421.1 364.5z"/>
  </symbol>

  </svg>