<svg width="118" height="57" viewBox="0 0 118 57" fill="none" xmlns="http://www.w3.org/2000/svg">
<g clip-path="url(#clip0_142_260)">
<path d="M4.29631 9.49511H7.51714V15.3832H11.8134V9.49511C11.8134 7.39383 10.1442 5.72516 8.05488 5.72516H3.75857C1.66363 5.72516 0 7.39383 0 9.49511V19.1925C0 23.3951 7.84202 29.8057 7.84202 32.5025V39.6716H4.62119V30.9406H0.324884V39.6716C0.324884 41.7729 1.98851 43.4415 4.08345 43.4415H8.37976C10.4747 43.4415 12.1383 41.7729 12.1383 39.6716V32.5025C12.1383 28.2999 4.29631 21.8837 4.29631 19.1925V9.49511Z" fill="#EA5D2C"/>
<path d="M17.7734 43.4472H22.0697V9.49511H26.422V5.72516H13.4211V9.49511H17.7734V43.4472Z" fill="#EA5D2C"/>
<path d="M28.2873 5.72516V43.4472H37.989V39.6716H32.5892V26.2099H35.81V22.4399H32.5892V9.49511H41.5123V5.72516H28.2873Z" fill="#EA5D2C"/>
<path d="M39.8823 5.72516V43.4472H49.3711V39.6716H44.1786V26.2099H47.3994V22.4399H44.1786V9.49511H49.3711V5.72516H39.8823Z" fill="#EA5D2C"/>
<path d="M51.4717 43.4472H65.2008V39.6716H55.7736V5.72516H51.4717V43.4472Z" fill="white"/>
<path d="M67.0661 43.4472V22.4231L70.1245 33.6936H74.2415L77.2999 22.4512V43.4472H82.6157V5.72516H77.2999L72.1858 26.1986L67.0661 5.72516H61.7559V43.4472H67.0661Z" fill="white"/>
<path d="M94.6252 17.3103L97.2803 34.2835H91.8973L94.6196 17.3103H94.6252ZM91.9701 5.72516L84.8619 43.4472H90.1776L91.1747 38.0591H98.0196L99.0167 43.4472H104.332L97.2242 5.72516H91.9757H91.9701Z" fill="white"/>
<path d="M107.301 43.4472H112.617V9.50073H118V5.72516H101.924V9.50073H107.301V43.4472Z" fill="white"/>
<path d="M26.3996 0H13.4211V3.78681H26.3996V0Z" fill="white"/>
<path d="M112.718 56.8415H111.749C111.301 56.8415 110.959 56.7179 110.713 56.4707C110.466 56.2234 110.348 55.8751 110.348 55.4369V52.4142C110.348 51.9647 110.472 51.622 110.713 51.3748C110.959 51.1275 111.301 51.0096 111.749 51.0096H112.718C113.166 51.0096 113.508 51.1332 113.754 51.3748C114.001 51.622 114.118 51.9647 114.118 52.4142V52.74C114.118 52.8468 114.068 52.903 113.967 52.903H113.396C113.295 52.903 113.244 52.8468 113.244 52.74V52.4479C113.244 51.9984 113.026 51.7737 112.595 51.7737H111.878C111.441 51.7737 111.228 51.9984 111.228 52.4479V55.3975C111.228 55.847 111.446 56.0717 111.878 56.0717H112.595C113.032 56.0717 113.244 55.847 113.244 55.3975V54.5829C113.244 54.5211 113.211 54.493 113.144 54.493H112.41C112.309 54.493 112.259 54.4424 112.259 54.3413V53.8806C112.259 53.7794 112.309 53.7289 112.41 53.7289H113.928C114.057 53.7289 114.118 53.7907 114.118 53.9199V55.4425C114.118 55.8863 113.995 56.2291 113.749 56.4763C113.502 56.7235 113.155 56.8471 112.718 56.8471M105.878 56.8471H105.318C105.218 56.8471 105.167 56.7965 105.167 56.6954V51.1669C105.167 51.0657 105.218 51.0152 105.318 51.0152H105.822C105.918 51.0152 105.985 51.0489 106.024 51.1163L108.214 55.0661H108.248V51.1725C108.248 51.0714 108.298 51.0208 108.399 51.0208H108.959C109.06 51.0208 109.111 51.0714 109.111 51.1725V56.701C109.111 56.8021 109.06 56.8527 108.959 56.8527H108.472C108.377 56.8527 108.298 56.8021 108.237 56.7066L106.063 52.8018H106.03V56.6954C106.03 56.7965 105.979 56.8471 105.878 56.8471ZM103.795 51.1669V56.6954C103.795 56.7965 103.744 56.8471 103.644 56.8471H103.072C102.971 56.8471 102.921 56.7965 102.921 56.6954V51.1669C102.921 51.0657 102.971 51.0152 103.072 51.0152H103.644C103.744 51.0152 103.795 51.0657 103.795 51.1669ZM100.383 51.0152H101.397C101.498 51.0152 101.549 51.0657 101.549 51.1669V56.6954C101.549 56.7965 101.498 56.8471 101.397 56.8471H100.837C100.736 56.8471 100.686 56.7965 100.686 56.6954V52.1108H100.652L99.476 55.4313C99.4424 55.5268 99.3752 55.5773 99.2744 55.5773H98.6974C98.6078 55.5773 98.5462 55.5268 98.507 55.4313L97.3027 52.0995H97.2691V56.6954C97.2691 56.7572 97.2579 56.7965 97.2355 56.819C97.2131 56.8415 97.1738 56.8527 97.1122 56.8527H96.5577C96.4569 56.8527 96.4064 56.8021 96.4064 56.701V51.1725C96.4064 51.0714 96.4569 51.0208 96.5577 51.0208H97.5716C97.6388 51.0208 97.6836 51.0545 97.7172 51.1219L98.9551 54.6278H98.9999L100.249 51.1219C100.26 51.0545 100.305 51.0208 100.383 51.0208V51.0152ZM93.2416 51.886L92.4462 54.7907H94.0819L93.2752 51.886H93.2416ZM91.7572 56.8527H91.1075C91.0235 56.8527 90.9955 56.8021 91.0179 56.701L92.5919 51.1725C92.6199 51.0714 92.6927 51.0208 92.8103 51.0208H93.7178C93.841 51.0208 93.9082 51.0714 93.9362 51.1725L95.5102 56.701C95.5326 56.8021 95.499 56.8527 95.4094 56.8527H94.7652C94.7092 56.8527 94.6756 56.8415 94.6532 56.819C94.6308 56.7965 94.614 56.7572 94.6028 56.6954L94.2611 55.5155H92.2726L91.9309 56.6954C91.9085 56.7965 91.8525 56.8471 91.7685 56.8471L91.7572 56.8527ZM87.5114 53.8862H88.6597C89.1078 53.8862 89.3318 53.6671 89.3318 53.2232V52.4591C89.3318 52.0096 89.1078 51.7849 88.6597 51.7849H87.5114C87.4441 51.7849 87.4105 51.813 87.4105 51.8748V53.7907C87.4105 53.8525 87.4441 53.8806 87.5114 53.8806V53.8862ZM87.2593 56.8527H86.6879C86.5871 56.8527 86.5311 56.8021 86.5311 56.701V51.1725C86.5311 51.0714 86.5815 51.0208 86.6879 51.0208H88.8053C89.2478 51.0208 89.5895 51.1444 89.8416 51.3972C90.0936 51.6501 90.2169 51.9928 90.2169 52.4366V53.2007C90.2169 53.8974 89.9312 54.3357 89.3598 54.5154V54.5492L90.3625 56.6729C90.4297 56.7965 90.3905 56.8527 90.2449 56.8527H89.6847C89.5391 56.8527 89.4439 56.8021 89.4046 56.701L88.4356 54.611H87.5226C87.4497 54.611 87.4161 54.6391 87.4161 54.7009V56.6954C87.4161 56.7965 87.3657 56.8471 87.2649 56.8471L87.2593 56.8527ZM83.1478 56.8527H82.5765C82.4757 56.8527 82.4196 56.8021 82.4196 56.701V51.1725C82.4196 51.0714 82.4701 51.0208 82.5765 51.0208H85.4164C85.5172 51.0208 85.5677 51.0714 85.5677 51.1725V51.6332C85.5677 51.7343 85.5172 51.7849 85.4164 51.7849H83.4055C83.3327 51.7849 83.2991 51.813 83.2991 51.8748V53.5884C83.2991 53.6558 83.3327 53.6895 83.4055 53.6895H85.1532C85.2596 53.6895 85.3156 53.7401 85.3156 53.8412V54.2963C85.3156 54.4031 85.2596 54.4593 85.1532 54.4593H83.4055C83.3327 54.4593 83.2991 54.4874 83.2991 54.5492V56.6898C83.2991 56.7909 83.2487 56.8415 83.1478 56.8415V56.8527ZM79.2828 56.8527H76.3533C76.2525 56.8527 76.202 56.8021 76.202 56.701V51.1725C76.202 51.0714 76.2525 51.0208 76.3533 51.0208H76.9246C77.0255 51.0208 77.0759 51.0714 77.0759 51.1725V55.9762C77.0759 56.038 77.1095 56.0661 77.1823 56.0661H79.2828C79.3837 56.0661 79.4341 56.1223 79.4341 56.2291V56.701C79.4341 56.8021 79.3837 56.8527 79.2828 56.8527ZM74.9025 56.8527H72.0066C71.9057 56.8527 71.8553 56.8021 71.8553 56.701V51.1725C71.8553 51.0714 71.9057 51.0208 72.0066 51.0208H74.9025C74.9977 51.0208 75.0481 51.0714 75.0481 51.1725V51.6332C75.0481 51.7343 74.9977 51.7849 74.9025 51.7849H72.8412C72.7684 51.7849 72.7348 51.813 72.7348 51.8748V53.4086C72.7348 53.4704 72.7684 53.4985 72.8412 53.4985H74.5888C74.6953 53.4985 74.7513 53.5491 74.7513 53.6502V54.1109C74.7513 54.2121 74.6953 54.2626 74.5888 54.2626H72.8412C72.7684 54.2626 72.7348 54.2907 72.7348 54.3525V55.9706C72.7348 56.038 72.7684 56.0717 72.8412 56.0717H74.9025C74.9977 56.0717 75.0481 56.1223 75.0481 56.2234V56.6842C75.0481 56.7853 74.9977 56.8359 74.9025 56.8359V56.8527ZM70.5558 56.8527H67.6598C67.559 56.8527 67.5086 56.8021 67.5086 56.701V51.1725C67.5086 51.0714 67.559 51.0208 67.6598 51.0208H70.5558C70.651 51.0208 70.7014 51.0714 70.7014 51.1725V51.6332C70.7014 51.7343 70.651 51.7849 70.5558 51.7849H68.4945C68.4216 51.7849 68.388 51.813 68.388 51.8748V53.4086C68.388 53.4704 68.4216 53.4985 68.4945 53.4985H70.2421C70.3485 53.4985 70.4045 53.5491 70.4045 53.6502V54.1109C70.4045 54.2121 70.3485 54.2626 70.2421 54.2626H68.4945C68.4216 54.2626 68.388 54.2907 68.388 54.3525V55.9706C68.388 56.038 68.4216 56.0717 68.4945 56.0717H70.5558C70.651 56.0717 70.7014 56.1223 70.7014 56.2234V56.6842C70.7014 56.7853 70.651 56.8359 70.5558 56.8359V56.8527ZM65.1728 56.8527H64.6015C64.495 56.8527 64.439 56.8021 64.439 56.701V51.8804C64.439 51.8186 64.411 51.7905 64.3494 51.7905H63.2067C63.1003 51.7905 63.0443 51.74 63.0443 51.6388V51.1781C63.0443 51.077 63.1003 51.0264 63.2067 51.0264H66.562C66.6684 51.0264 66.7244 51.077 66.7244 51.1781V51.6388C66.7244 51.74 66.6684 51.7905 66.562 51.7905H65.4193C65.352 51.7905 65.3184 51.8186 65.3184 51.8804V56.701C65.3184 56.8021 65.268 56.8527 65.1672 56.8527H65.1728ZM58.5127 55.4369V55.2009C58.5127 55.0998 58.5631 55.0492 58.6639 55.0492H59.2409C59.3417 55.0492 59.3921 55.0998 59.3921 55.2009V55.3638C59.3921 55.6167 59.4481 55.8021 59.5602 55.9144C59.6722 56.0268 59.857 56.083 60.1147 56.083H60.7365C60.9941 56.083 61.1846 56.0268 61.2966 55.9032C61.4086 55.7852 61.4702 55.5942 61.4702 55.3245V55.1166C61.4702 54.9256 61.3974 54.7683 61.2462 54.6559C61.1005 54.5435 60.9157 54.4705 60.6972 54.4368C60.4788 54.4031 60.2435 54.3581 59.9803 54.2963C59.7226 54.2345 59.4817 54.1671 59.2633 54.0884C59.0448 54.0098 58.8656 53.8637 58.7143 53.6446C58.5687 53.4255 58.4903 53.1502 58.4903 52.8074V52.4254C58.4903 51.9815 58.6135 51.6388 58.8656 51.386C59.1176 51.1332 59.4593 51.0096 59.9018 51.0096H60.8597C61.3078 51.0096 61.6551 51.1332 61.9072 51.386C62.1592 51.6388 62.2825 51.9815 62.2825 52.4254V52.6277C62.2825 52.7288 62.232 52.7794 62.1312 52.7794H61.5543C61.4534 52.7794 61.403 52.7288 61.403 52.6277V52.5097C61.403 52.2512 61.347 52.0658 61.235 51.9535C61.123 51.8411 60.9381 51.7849 60.6804 51.7849H60.1091C59.8514 51.7849 59.6666 51.8467 59.5546 51.9647C59.4425 52.0827 59.3865 52.2849 59.3865 52.5659V52.8468C59.3865 53.1165 59.5826 53.3019 59.9747 53.403C60.1483 53.448 60.3388 53.4817 60.5516 53.5098C60.7589 53.5378 60.9717 53.5828 61.179 53.6446C61.3918 53.7064 61.5823 53.7851 61.7559 53.8862C61.9296 53.9873 62.0752 54.139 62.1816 54.3413C62.2881 54.5435 62.3441 54.7907 62.3441 55.0829V55.4369C62.3441 55.8807 62.2208 56.2234 61.9688 56.4763C61.7167 56.7291 61.375 56.8527 60.9325 56.8527H59.9186C59.4761 56.8527 59.1288 56.7291 58.8768 56.4763C58.6247 56.2234 58.4959 55.8807 58.4959 55.4369H58.5127ZM51.9086 56.8527H51.3484C51.2476 56.8527 51.1972 56.8021 51.1972 56.701V51.1725C51.1972 51.0714 51.2476 51.0208 51.3484 51.0208H51.8526C51.9478 51.0208 52.015 51.0545 52.0542 51.1219L54.2444 55.0717H54.278V51.1781C54.278 51.077 54.3284 51.0264 54.4292 51.0264H54.9894C55.0902 51.0264 55.1406 51.077 55.1406 51.1781V56.7066C55.1406 56.8078 55.0902 56.8583 54.9894 56.8583H54.5021C54.4068 56.8583 54.3284 56.8078 54.2668 56.7122L52.0934 52.8074H52.0598V56.701C52.0598 56.8021 52.0094 56.8527 51.9086 56.8527ZM48.5589 56.8527H47.5114C47.0633 56.8527 46.7216 56.7291 46.4752 56.4819C46.2287 56.2347 46.1111 55.8863 46.1111 55.4481V52.4254C46.1111 51.9759 46.2343 51.6332 46.4752 51.386C46.7216 51.1388 47.0633 51.0208 47.5114 51.0208H48.5589C49.007 51.0208 49.3543 51.1444 49.6008 51.386C49.8472 51.6332 49.9705 51.9759 49.9705 52.4254V55.4481C49.9705 55.892 49.8472 56.2347 49.6008 56.4819C49.3543 56.7291 49.007 56.8527 48.5589 56.8527ZM47.6347 56.083H48.4245C48.867 56.083 49.0855 55.8582 49.0855 55.4088V52.4591C49.0855 52.0096 48.867 51.7849 48.4245 51.7849H47.6347C47.1978 51.7849 46.9849 52.0096 46.9849 52.4591V55.4088C46.9849 55.8582 47.2034 56.083 47.6347 56.083ZM48.3573 49.2679H49.063C49.1135 49.2679 49.1415 49.2847 49.1583 49.3128C49.1751 49.3409 49.1639 49.3802 49.1359 49.4195L48.3741 50.3297C48.3181 50.4028 48.2508 50.4365 48.1668 50.4365H47.7299C47.6291 50.4365 47.6011 50.3859 47.6571 50.2848L48.1276 49.4139C48.1724 49.3184 48.2452 49.2679 48.3517 49.2679H48.3573ZM44.8284 51.1725V56.701C44.8284 56.8021 44.7779 56.8527 44.6771 56.8527H44.1058C44.0049 56.8527 43.9545 56.8021 43.9545 56.701V51.1725C43.9545 51.0714 44.0049 51.0208 44.1058 51.0208H44.6771C44.7779 51.0208 44.8284 51.0714 44.8284 51.1725ZM41.3779 56.8527H40.3304C39.8823 56.8527 39.5406 56.7291 39.2941 56.4819C39.0477 56.2347 38.93 55.8863 38.93 55.4481V52.4254C38.93 51.9759 39.0533 51.6332 39.2941 51.386C39.5406 51.1388 39.8823 51.0208 40.3304 51.0208H41.3779C41.8204 51.0208 42.1621 51.1444 42.4085 51.386C42.655 51.6332 42.7782 51.9759 42.7782 52.4254V52.8636C42.7782 52.9704 42.7222 53.0266 42.6158 53.0266H42.0444C41.9436 53.0266 41.8932 52.9704 41.8932 52.8636V52.4647C41.8932 52.0153 41.6747 51.7905 41.2434 51.7905H40.4536C40.0167 51.7905 39.8039 52.0153 39.8039 52.4647V55.4144C39.8039 55.8639 40.0223 56.0886 40.4536 56.0886H41.2434C41.6803 56.0886 41.8932 55.8639 41.8932 55.4144V55.0155C41.8932 54.9087 41.9436 54.8526 42.0444 54.8526H42.6158C42.7222 54.8526 42.7782 54.9087 42.7782 55.0155V55.4537C42.7782 55.8976 42.655 56.2403 42.4085 56.4875C42.1621 56.7347 41.8148 56.8583 41.3779 56.8583V56.8527ZM36.4934 56.8527H35.4459C34.9978 56.8527 34.6561 56.7291 34.4097 56.4819C34.1632 56.2347 34.0456 55.8863 34.0456 55.4481V52.4254C34.0456 51.9759 34.1688 51.6332 34.4097 51.386C34.6561 51.1388 34.9978 51.0208 35.4459 51.0208H36.4934C36.9359 51.0208 37.2776 51.1444 37.5241 51.386C37.7705 51.6332 37.8938 51.9759 37.8938 52.4254V52.8636C37.8938 52.9704 37.8378 53.0266 37.7313 53.0266H37.16C37.0592 53.0266 37.0087 52.9704 37.0087 52.8636V52.4647C37.0087 52.0153 36.7903 51.7905 36.359 51.7905H35.5692C35.1323 51.7905 34.9194 52.0153 34.9194 52.4647V55.4144C34.9194 55.8639 35.1379 56.0886 35.5692 56.0886H36.359C36.7959 56.0886 37.0087 55.8639 37.0087 55.4144V55.0155C37.0087 54.9087 37.0592 54.8526 37.16 54.8526H37.7313C37.8378 54.8526 37.8938 54.9087 37.8938 55.0155V55.4537C37.8938 55.8976 37.7705 56.2403 37.5241 56.4875C37.2776 56.7347 36.9303 56.8583 36.4934 56.8583V56.8527ZM32.1299 51.0152H32.7012C32.8077 51.0152 32.8637 51.0657 32.8637 51.1613V55.4481C32.8637 55.892 32.7404 56.2347 32.4884 56.4819C32.2363 56.7291 31.8946 56.8527 31.4521 56.8527H30.4494C30.0069 56.8527 29.6652 56.7291 29.4188 56.4819C29.1723 56.2347 29.0491 55.8863 29.0491 55.4481V51.1725C29.0491 51.0714 29.0995 51.0208 29.2003 51.0208H29.7717C29.8725 51.0208 29.9229 51.0714 29.9229 51.1725V55.4088C29.9229 55.8582 30.1414 56.083 30.5727 56.083H31.3121C31.7546 56.083 31.973 55.8582 31.973 55.4088V51.1725C31.973 51.0714 32.0235 51.0208 32.1243 51.0208L32.1299 51.0152ZM25.1617 53.8862H26.31C26.7581 53.8862 26.9822 53.6671 26.9822 53.2232V52.4591C26.9822 52.0096 26.7581 51.7849 26.31 51.7849H25.1617C25.0945 51.7849 25.0609 51.813 25.0609 51.8748V53.7907C25.0609 53.8525 25.0945 53.8806 25.1617 53.8806V53.8862ZM24.9096 56.8527H24.3383C24.2374 56.8527 24.187 56.8021 24.187 56.701V51.1725C24.187 51.0714 24.2374 51.0208 24.3383 51.0208H26.4556C26.8981 51.0208 27.2398 51.1444 27.4919 51.3972C27.744 51.6501 27.8672 51.9928 27.8672 52.4366V53.2007C27.8672 53.8974 27.5815 54.3357 27.0102 54.5154V54.5492L28.0128 56.6729C28.08 56.7965 28.0408 56.8527 27.8952 56.8527H27.335C27.1894 56.8527 27.0942 56.8021 27.055 56.701L26.0859 54.611H25.1729C25.1001 54.611 25.0665 54.6391 25.0665 54.7009V56.6954C25.0665 56.7965 25.016 56.8471 24.9152 56.8471L24.9096 56.8527ZM21.8512 56.8527H21.2799C21.1735 56.8527 21.1174 56.8021 21.1174 56.701V51.8804C21.1174 51.8186 21.0894 51.7905 21.0278 51.7905H19.8851C19.7787 51.7905 19.7227 51.74 19.7227 51.6388V51.1781C19.7227 51.077 19.7787 51.0264 19.8851 51.0264H23.2404C23.3468 51.0264 23.4028 51.077 23.4028 51.1781V51.6388C23.4028 51.74 23.3468 51.7905 23.2404 51.7905H22.0977C22.0305 51.7905 21.9969 51.8186 21.9969 51.8804V56.701C21.9969 56.8021 21.9465 56.8527 21.84 56.8527H21.8512ZM15.1911 55.4369V55.2009C15.1911 55.0998 15.2415 55.0492 15.3424 55.0492H15.9193C16.0201 55.0492 16.0705 55.0998 16.0705 55.2009V55.3638C16.0705 55.6167 16.1266 55.8021 16.2386 55.9144C16.3506 56.0268 16.5355 56.083 16.7931 56.083H17.4149C17.6726 56.083 17.863 56.0268 17.975 55.9032C18.0871 55.7852 18.1487 55.5942 18.1487 55.3245V55.1166C18.1487 54.9256 18.0759 54.7683 17.9246 54.6559C17.779 54.5435 17.5941 54.4705 17.3757 54.4368C17.1572 54.4031 16.922 54.3581 16.6587 54.2963C16.401 54.2345 16.1602 54.1671 15.9417 54.0884C15.7233 54.0098 15.544 53.8637 15.3928 53.6446C15.2471 53.4255 15.1687 53.1502 15.1687 52.8074V52.4254C15.1687 51.9815 15.2919 51.6388 15.544 51.386C15.7961 51.1332 16.1378 51.0096 16.5803 51.0096H17.5381C17.9862 51.0096 18.3335 51.1332 18.5856 51.386C18.8377 51.6388 18.9609 51.9815 18.9609 52.4254V52.6277C18.9609 52.7288 18.9105 52.7794 18.8096 52.7794H18.2327C18.1319 52.7794 18.0815 52.7288 18.0815 52.6277V52.5097C18.0815 52.2512 18.0254 52.0658 17.9134 51.9535C17.8014 51.8411 17.6165 51.7849 17.3589 51.7849H16.7875C16.5299 51.7849 16.345 51.8467 16.233 51.9647C16.121 52.0827 16.0649 52.2849 16.0649 52.5659V52.8468C16.0649 53.1165 16.261 53.3019 16.6531 53.403C16.8267 53.448 17.0172 53.4817 17.23 53.5098C17.4373 53.5378 17.6501 53.5828 17.8574 53.6446C18.0703 53.7064 18.2607 53.7851 18.4344 53.8862C18.608 53.9873 18.7536 54.139 18.8601 54.3413C18.9665 54.5435 19.0225 54.7907 19.0225 55.0829V55.4369C19.0225 55.8807 18.8993 56.2234 18.6472 56.4763C18.3951 56.7291 18.0535 56.8527 17.6109 56.8527H16.5971C16.1546 56.8527 15.8073 56.7291 15.5552 56.4763C15.3031 56.2234 15.1743 55.8807 15.1743 55.4369H15.1911ZM10.738 56.8527H10.1778C10.077 56.8527 10.0266 56.8021 10.0266 56.701V51.1725C10.0266 51.0714 10.077 51.0208 10.1778 51.0208H10.682C10.7772 51.0208 10.8444 51.0545 10.8836 51.1219L13.0738 55.0717H13.1074V51.1781C13.1074 51.077 13.1578 51.0264 13.2586 51.0264H13.8188C13.9196 51.0264 13.97 51.077 13.97 51.1781V56.7066C13.97 56.8078 13.9196 56.8583 13.8188 56.8583H13.3314C13.2362 56.8583 13.1578 56.8078 13.0962 56.7122L10.9228 52.8074H10.8892V56.701C10.8892 56.8021 10.8388 56.8527 10.738 56.8527ZM7.3883 56.8527H6.34083C5.89272 56.8527 5.55103 56.7291 5.30457 56.4819C5.0581 56.2347 4.94047 55.8863 4.94047 55.4481V52.4254C4.94047 51.9759 5.06371 51.6332 5.30457 51.386C5.54543 51.1388 5.89272 51.0208 6.34083 51.0208H7.3883C7.83642 51.0208 8.18371 51.1444 8.43017 51.386C8.67664 51.6332 8.79987 51.9759 8.79987 52.4254V55.4481C8.79987 55.892 8.67664 56.2347 8.43017 56.4819C8.18371 56.7291 7.83642 56.8527 7.3883 56.8527ZM6.46407 56.083H7.25387C7.69638 56.083 7.91484 55.8582 7.91484 55.4088V52.4591C7.91484 52.0096 7.69638 51.7849 7.25387 51.7849H6.46407C6.02715 51.7849 5.8143 52.0096 5.8143 52.4591V55.4088C5.8143 55.8582 6.03275 56.083 6.46407 56.083ZM2.49824 56.8527H1.45077C1.00266 56.8527 0.66097 56.7291 0.414507 56.4819C0.168043 56.2347 0.0504131 55.8863 0.0504131 55.4481V52.4254C0.0504131 51.9759 0.173645 51.6332 0.414507 51.386C0.66097 51.1388 1.00266 51.0208 1.45077 51.0208H2.49824C2.94076 51.0208 3.28245 51.1444 3.52891 51.386C3.77537 51.6332 3.8986 51.9759 3.8986 52.4254V52.8636C3.8986 52.9704 3.84259 53.0266 3.73616 53.0266H3.16482C3.06399 53.0266 3.01358 52.9704 3.01358 52.8636V52.4647C3.01358 52.0153 2.79512 51.7905 2.36381 51.7905H1.57401C1.13709 51.7905 0.924238 52.0153 0.924238 52.4647V55.4144C0.924238 55.8639 1.14269 56.0886 1.57401 56.0886H2.36381C2.80072 56.0886 3.01358 55.8639 3.01358 55.4144V55.0155C3.01358 54.9087 3.06399 54.8526 3.16482 54.8526H3.73616C3.84259 54.8526 3.8986 54.9087 3.8986 55.0155V55.4537C3.8986 55.8976 3.77537 56.2403 3.52891 56.4875C3.28245 56.7347 2.93516 56.8583 2.49824 56.8583V56.8527Z" fill="white"/>
</g>
<defs>
<clipPath id="clip0_142_260">
<rect width="118" height="56.8415" fill="white"/>
</clipPath>
</defs>
</svg>
